<mxfile host="app.diagrams.net" agent="Mozilla/5.0 (Windows NT 10.0; Win64; x64) AppleWebKit/537.36 (KHTML, like Gecko) Chrome/133.0.0.0 Safari/537.36" version="26.0.16">
  <diagram name="Página-1" id="r3U61_8eifNKRhHVnJGS">
    <mxGraphModel dx="4074" dy="2587" grid="1" gridSize="10" guides="1" tooltips="1" connect="1" arrows="1" fold="1" page="1" pageScale="1" pageWidth="827" pageHeight="1169" math="0" shadow="0">
      <root>
        <mxCell id="0" />
        <mxCell id="1" parent="0" />
        <UserObject label="" plantUmlData="{&quot;data&quot;:&quot;@startuml\n!include https://raw.githubusercontent.com/plantuml-stdlib/C4-PlantUML/master/C4_Component.puml\n\ntitle Diagrama de Componentes - Microservicio de Facturación\n\nContainer_Boundary(facturacion, \&quot;Microservicio de Facturación\&quot;) {\n    Component(gestionComisiones, \&quot;Gestión de Comisiones\&quot;, \&quot;Component\&quot;, \&quot;Gestiona las comisiones y sus cálculos\&quot;)\n    Component(gestionFacturacion, \&quot;Gestión de Facturación\&quot;, \&quot;Component\&quot;, \&quot;Gestiona el proceso de facturación\&quot;)\n    Component(calculadorComisiones, \&quot;Calculador de Comisiones\&quot;, \&quot;Component\&quot;, \&quot;Calcula comisiones según reglas de negocio\&quot;)\n    Component(generadorFacturas, \&quot;Generador de Facturas\&quot;, \&quot;Component\&quot;, \&quot;Genera documentos de facturación\&quot;)\n    Component(facturacionDB, \&quot;Base de Datos Facturación\&quot;, \&quot;MongoDB\&quot;, \&quot;Almacena datos de facturación y comisiones\&quot;)\n}\n\nSystem_Ext(transacciones, \&quot;Microservicio de Transacciones\&quot;, \&quot;Provee información de transacciones\&quot;)\nSystem_Ext(comercios, \&quot;Microservicio de Comercios\&quot;, \&quot;Provee información de comercios\&quot;)\n\nRel(gestionComisiones, facturacionDB, \&quot;Lee/Escribe\&quot;)\nRel(gestionFacturacion, facturacionDB, \&quot;Lee/Escribe\&quot;)\nRel(gestionFacturacion, calculadorComisiones, \&quot;Usa\&quot;)\nRel(gestionFacturacion, generadorFacturas, \&quot;Usa\&quot;)\nRel(calculadorComisiones, gestionComisiones, \&quot;Usa\&quot;)\n\nRel(gestionFacturacion, transacciones, \&quot;Consulta\&quot;)\nRel(gestionFacturacion, comercios, \&quot;Consulta\&quot;)\n\n@enduml&quot;,&quot;format&quot;:&quot;svg&quot;}" id="hBmAJ28AIjuTRTe7ucdd-1">
          <mxCell style="shape=image;noLabel=1;verticalAlign=top;aspect=fixed;imageAspect=0;image=data:image/svg+xml,PD94bWwgdmVyc2lvbj0iMS4wIiBlbmNvZGluZz0idXMtYXNjaWkiIHN0YW5kYWxvbmU9Im5vIj8+PHN2ZyB4bWxucz0iaHR0cDovL3d3dy53My5vcmcvMjAwMC9zdmciIHhtbG5zOnhsaW5rPSJodHRwOi8vd3d3LnczLm9yZy8xOTk5L3hsaW5rIiBjb250ZW50U3R5bGVUeXBlPSJ0ZXh0L2NzcyIgaGVpZ2h0PSI3OTBweCIgcHJlc2VydmVBc3BlY3RSYXRpbz0ibm9uZSIgc3R5bGU9IndpZHRoOjkwN3B4O2hlaWdodDo3OTBweDtiYWNrZ3JvdW5kOiNGRkZGRkY7IiB2ZXJzaW9uPSIxLjEiIHZpZXdCb3g9IjAgMCA5MDcgNzkwIiB3aWR0aD0iOTA3cHgiIHpvb21BbmRQYW49Im1hZ25pZnkiPjxkZWZzLz48Zz48dGV4dCBmaWxsPSIjMDAwMDAwIiBmb250LWZhbWlseT0ic2Fucy1zZXJpZiIgZm9udC1zaXplPSIxNCIgZm9udC13ZWlnaHQ9ImJvbGQiIGxlbmd0aEFkanVzdD0ic3BhY2luZyIgdGV4dExlbmd0aD0iMzgwIiB4PSIyNTYuNSIgeT0iMjMuMjM0NCI+RGlhZ3JhbWEgZGUgQ29tcG9uZW50ZXMgLSBNaWNyb3NlcnZpY2lvIGRlIEZhY3R1cmFjaSYjMjQzO248L3RleHQ+PCEtLWNsdXN0ZXIgZmFjdHVyYWNpb24tLT48ZyBpZD0iY2x1c3Rlcl9mYWN0dXJhY2lvbiI+PHJlY3QgZmlsbD0ibm9uZSIgaGVpZ2h0PSI3NDIiIHJ4PSIyLjUiIHJ5PSIyLjUiIHN0eWxlPSJzdHJva2U6IzQ0NDQ0NDtzdHJva2Utd2lkdGg6MS4wO3N0cm9rZS1kYXNoYXJyYXk6Ny4wLDcuMDsiIHdpZHRoPSI1MDQiIHg9IjciIHk9IjQyLjk4NDQiLz48dGV4dCBmaWxsPSIjNDQ0NDQ0IiBmb250LWZhbWlseT0ic2Fucy1zZXJpZiIgZm9udC1zaXplPSIxNiIgZm9udC13ZWlnaHQ9ImJvbGQiIGxlbmd0aEFkanVzdD0ic3BhY2luZyIgdGV4dExlbmd0aD0iMjI0IiB4PSIxNDciIHk9IjgwLjEwOTQiPk1pY3Jvc2VydmljaW8gZGUgRmFjdHVyYWNpJiMyNDM7bjwvdGV4dD48dGV4dCBmaWxsPSIjNDQ0NDQ0IiBmb250LWZhbWlseT0ic2Fucy1zZXJpZiIgZm9udC1zaXplPSIxMiIgZm9udC13ZWlnaHQ9ImJvbGQiIGxlbmd0aEFkanVzdD0ic3BhY2luZyIgdGV4dExlbmd0aD0iNzIiIHg9IjIyMyIgeT0iOTMuNDUzMSI+W2NvbnRhaW5lcl08L3RleHQ+PC9nPjwhLS1lbnRpdHkgZ2VzdGlvbkNvbWlzaW9uZXMtLT48ZyBpZD0iZWxlbV9nZXN0aW9uQ29taXNpb25lcyI+PHJlY3QgZmlsbD0iIzg1QkJGMCIgaGVpZ2h0PSIxMDcuNzY1NiIgcng9IjIuNSIgcnk9IjIuNSIgc3R5bGU9InN0cm9rZTojNzhBOEQ4O3N0cm9rZS13aWR0aDowLjU7IiB3aWR0aD0iMTk2IiB4PSI3MSIgeT0iNDc4Ljk4NDQiLz48dGV4dCBmaWxsPSIjMDAwMDAwIiBmb250LWZhbWlseT0ic2Fucy1zZXJpZiIgZm9udC1zaXplPSIxMiIgZm9udC1zdHlsZT0iaXRhbGljIiBsZW5ndGhBZGp1c3Q9InNwYWNpbmciIHRleHRMZW5ndGg9IjcyIiB4PSIxMzMiIHk9IjUwMC4zMjgxIj4mIzE3MTtjb21wb25lbnQmIzE4Nzs8L3RleHQ+PHRleHQgZmlsbD0iIzAwMDAwMCIgZm9udC1mYW1pbHk9InNhbnMtc2VyaWYiIGZvbnQtc2l6ZT0iMTYiIGZvbnQtd2VpZ2h0PSJib2xkIiBsZW5ndGhBZGp1c3Q9InNwYWNpbmciIHRleHRMZW5ndGg9IjU2IiB4PSI4NSIgeT0iNTE2Ljk1MzEiPkdlc3RpJiMyNDM7bjwvdGV4dD48dGV4dCBmaWxsPSIjMDAwMDAwIiBmb250LWZhbWlseT0ic2Fucy1zZXJpZiIgZm9udC1zaXplPSIxNiIgZm9udC13ZWlnaHQ9ImJvbGQiIGxlbmd0aEFkanVzdD0ic3BhY2luZyIgdGV4dExlbmd0aD0iOCIgeD0iMTQxIiB5PSI1MTYuOTUzMSI+JiMxNjA7PC90ZXh0Pjx0ZXh0IGZpbGw9IiMwMDAwMDAiIGZvbnQtZmFtaWx5PSJzYW5zLXNlcmlmIiBmb250LXNpemU9IjE2IiBmb250LXdlaWdodD0iYm9sZCIgbGVuZ3RoQWRqdXN0PSJzcGFjaW5nIiB0ZXh0TGVuZ3RoPSIxNiIgeD0iMTQ5IiB5PSI1MTYuOTUzMSI+ZGU8L3RleHQ+PHRleHQgZmlsbD0iIzAwMDAwMCIgZm9udC1mYW1pbHk9InNhbnMtc2VyaWYiIGZvbnQtc2l6ZT0iMTYiIGZvbnQtd2VpZ2h0PSJib2xkIiBsZW5ndGhBZGp1c3Q9InNwYWNpbmciIHRleHRMZW5ndGg9IjgiIHg9IjE2NSIgeT0iNTE2Ljk1MzEiPiYjMTYwOzwvdGV4dD48dGV4dCBmaWxsPSIjMDAwMDAwIiBmb250LWZhbWlseT0ic2Fucy1zZXJpZiIgZm9udC1zaXplPSIxNiIgZm9udC13ZWlnaHQ9ImJvbGQiIGxlbmd0aEFkanVzdD0ic3BhY2luZyIgdGV4dExlbmd0aD0iODAiIHg9IjE3MyIgeT0iNTE2Ljk1MzEiPkNvbWlzaW9uZXM8L3RleHQ+PHRleHQgZmlsbD0iIzAwMDAwMCIgZm9udC1mYW1pbHk9InNhbnMtc2VyaWYiIGZvbnQtc2l6ZT0iMTIiIGZvbnQtc3R5bGU9Iml0YWxpYyIgbGVuZ3RoQWRqdXN0PSJzcGFjaW5nIiB0ZXh0TGVuZ3RoPSI3MyIgeD0iMTMyLjUiIHk9IjUzMC4yOTY5Ij5bQ29tcG9uZW50XTwvdGV4dD48dGV4dCBmaWxsPSIjMDAwMDAwIiBmb250LWZhbWlseT0ic2Fucy1zZXJpZiIgZm9udC1zaXplPSIxNCIgbGVuZ3RoQWRqdXN0PSJzcGFjaW5nIiB0ZXh0TGVuZ3RoPSI3IiB4PSIxNjUuNSIgeT0iNTQ1LjAzMTMiPiYjMTYwOzwvdGV4dD48dGV4dCBmaWxsPSIjMDAwMDAwIiBmb250LWZhbWlseT0ic2Fucy1zZXJpZiIgZm9udC1zaXplPSIxNCIgbGVuZ3RoQWRqdXN0PSJzcGFjaW5nIiB0ZXh0TGVuZ3RoPSI1NiIgeD0iODEiIHk9IjU2MC4wMTU2Ij5HZXN0aW9uYTwvdGV4dD48dGV4dCBmaWxsPSIjMDAwMDAwIiBmb250LWZhbWlseT0ic2Fucy1zZXJpZiIgZm9udC1zaXplPSIxNCIgbGVuZ3RoQWRqdXN0PSJzcGFjaW5nIiB0ZXh0TGVuZ3RoPSI3IiB4PSIxMzciIHk9IjU2MC4wMTU2Ij4mIzE2MDs8L3RleHQ+PHRleHQgZmlsbD0iIzAwMDAwMCIgZm9udC1mYW1pbHk9InNhbnMtc2VyaWYiIGZvbnQtc2l6ZT0iMTQiIGxlbmd0aEFkanVzdD0ic3BhY2luZyIgdGV4dExlbmd0aD0iMjEiIHg9IjE0NCIgeT0iNTYwLjAxNTYiPmxhczwvdGV4dD48dGV4dCBmaWxsPSIjMDAwMDAwIiBmb250LWZhbWlseT0ic2Fucy1zZXJpZiIgZm9udC1zaXplPSIxNCIgbGVuZ3RoQWRqdXN0PSJzcGFjaW5nIiB0ZXh0TGVuZ3RoPSI3IiB4PSIxNjUiIHk9IjU2MC4wMTU2Ij4mIzE2MDs8L3RleHQ+PHRleHQgZmlsbD0iIzAwMDAwMCIgZm9udC1mYW1pbHk9InNhbnMtc2VyaWYiIGZvbnQtc2l6ZT0iMTQiIGxlbmd0aEFkanVzdD0ic3BhY2luZyIgdGV4dExlbmd0aD0iNzEiIHg9IjE3MiIgeT0iNTYwLjAxNTYiPmNvbWlzaW9uZXM8L3RleHQ+PHRleHQgZmlsbD0iIzAwMDAwMCIgZm9udC1mYW1pbHk9InNhbnMtc2VyaWYiIGZvbnQtc2l6ZT0iMTQiIGxlbmd0aEFkanVzdD0ic3BhY2luZyIgdGV4dExlbmd0aD0iNyIgeD0iMjQzIiB5PSI1NjAuMDE1NiI+JiMxNjA7PC90ZXh0Pjx0ZXh0IGZpbGw9IiMwMDAwMDAiIGZvbnQtZmFtaWx5PSJzYW5zLXNlcmlmIiBmb250LXNpemU9IjE0IiBsZW5ndGhBZGp1c3Q9InNwYWNpbmciIHRleHRMZW5ndGg9IjciIHg9IjI1MCIgeT0iNTYwLjAxNTYiPnk8L3RleHQ+PHRleHQgZmlsbD0iIzAwMDAwMCIgZm9udC1mYW1pbHk9InNhbnMtc2VyaWYiIGZvbnQtc2l6ZT0iMTQiIGxlbmd0aEFkanVzdD0ic3BhY2luZyIgdGV4dExlbmd0aD0iMjEiIHg9IjEyNyIgeT0iNTc1Ij5zdXM8L3RleHQ+PHRleHQgZmlsbD0iIzAwMDAwMCIgZm9udC1mYW1pbHk9InNhbnMtc2VyaWYiIGZvbnQtc2l6ZT0iMTQiIGxlbmd0aEFkanVzdD0ic3BhY2luZyIgdGV4dExlbmd0aD0iNyIgeD0iMTQ4IiB5PSI1NzUiPiYjMTYwOzwvdGV4dD48dGV4dCBmaWxsPSIjMDAwMDAwIiBmb250LWZhbWlseT0ic2Fucy1zZXJpZiIgZm9udC1zaXplPSIxNCIgbGVuZ3RoQWRqdXN0PSJzcGFjaW5nIiB0ZXh0TGVuZ3RoPSI1NiIgeD0iMTU1IiB5PSI1NzUiPmMmIzIyNTtsY3Vsb3M8L3RleHQ+PC9nPjwhLS1lbnRpdHkgZ2VzdGlvbkZhY3R1cmFjaW9uLS0+PGcgaWQ9ImVsZW1fZ2VzdGlvbkZhY3R1cmFjaW9uIj48cmVjdCBmaWxsPSIjODVCQkYwIiBoZWlnaHQ9IjEwNy43NjU2IiByeD0iMi41IiByeT0iMi41IiBzdHlsZT0ic3Ryb2tlOiM3OEE4RDg7c3Ryb2tlLXdpZHRoOjAuNTsiIHdpZHRoPSIxOTYiIHg9IjI5OSIgeT0iMTEwLjk4NDQiLz48dGV4dCBmaWxsPSIjMDAwMDAwIiBmb250LWZhbWlseT0ic2Fucy1zZXJpZiIgZm9udC1zaXplPSIxMiIgZm9udC1zdHlsZT0iaXRhbGljIiBsZW5ndGhBZGp1c3Q9InNwYWNpbmciIHRleHRMZW5ndGg9IjcyIiB4PSIzNjEiIHk9IjEzMi4zMjgxIj4mIzE3MTtjb21wb25lbnQmIzE4Nzs8L3RleHQ+PHRleHQgZmlsbD0iIzAwMDAwMCIgZm9udC1mYW1pbHk9InNhbnMtc2VyaWYiIGZvbnQtc2l6ZT0iMTYiIGZvbnQtd2VpZ2h0PSJib2xkIiBsZW5ndGhBZGp1c3Q9InNwYWNpbmciIHRleHRMZW5ndGg9IjU2IiB4PSIzMDkiIHk9IjE0OC45NTMxIj5HZXN0aSYjMjQzO248L3RleHQ+PHRleHQgZmlsbD0iIzAwMDAwMCIgZm9udC1mYW1pbHk9InNhbnMtc2VyaWYiIGZvbnQtc2l6ZT0iMTYiIGZvbnQtd2VpZ2h0PSJib2xkIiBsZW5ndGhBZGp1c3Q9InNwYWNpbmciIHRleHRMZW5ndGg9IjgiIHg9IjM2NSIgeT0iMTQ4Ljk1MzEiPiYjMTYwOzwvdGV4dD48dGV4dCBmaWxsPSIjMDAwMDAwIiBmb250LWZhbWlseT0ic2Fucy1zZXJpZiIgZm9udC1zaXplPSIxNiIgZm9udC13ZWlnaHQ9ImJvbGQiIGxlbmd0aEFkanVzdD0ic3BhY2luZyIgdGV4dExlbmd0aD0iMTYiIHg9IjM3MyIgeT0iMTQ4Ljk1MzEiPmRlPC90ZXh0Pjx0ZXh0IGZpbGw9IiMwMDAwMDAiIGZvbnQtZmFtaWx5PSJzYW5zLXNlcmlmIiBmb250LXNpemU9IjE2IiBmb250LXdlaWdodD0iYm9sZCIgbGVuZ3RoQWRqdXN0PSJzcGFjaW5nIiB0ZXh0TGVuZ3RoPSI4IiB4PSIzODkiIHk9IjE0OC45NTMxIj4mIzE2MDs8L3RleHQ+PHRleHQgZmlsbD0iIzAwMDAwMCIgZm9udC1mYW1pbHk9InNhbnMtc2VyaWYiIGZvbnQtc2l6ZT0iMTYiIGZvbnQtd2VpZ2h0PSJib2xkIiBsZW5ndGhBZGp1c3Q9InNwYWNpbmciIHRleHRMZW5ndGg9Ijg4IiB4PSIzOTciIHk9IjE0OC45NTMxIj5GYWN0dXJhY2kmIzI0MztuPC90ZXh0Pjx0ZXh0IGZpbGw9IiMwMDAwMDAiIGZvbnQtZmFtaWx5PSJzYW5zLXNlcmlmIiBmb250LXNpemU9IjEyIiBmb250LXN0eWxlPSJpdGFsaWMiIGxlbmd0aEFkanVzdD0ic3BhY2luZyIgdGV4dExlbmd0aD0iNzMiIHg9IjM2MC41IiB5PSIxNjIuMjk2OSI+W0NvbXBvbmVudF08L3RleHQ+PHRleHQgZmlsbD0iIzAwMDAwMCIgZm9udC1mYW1pbHk9InNhbnMtc2VyaWYiIGZvbnQtc2l6ZT0iMTQiIGxlbmd0aEFkanVzdD0ic3BhY2luZyIgdGV4dExlbmd0aD0iNyIgeD0iMzkzLjUiIHk9IjE3Ny4wMzEzIj4mIzE2MDs8L3RleHQ+PHRleHQgZmlsbD0iIzAwMDAwMCIgZm9udC1mYW1pbHk9InNhbnMtc2VyaWYiIGZvbnQtc2l6ZT0iMTQiIGxlbmd0aEFkanVzdD0ic3BhY2luZyIgdGV4dExlbmd0aD0iNTYiIHg9IjMyMCIgeT0iMTkyLjAxNTYiPkdlc3Rpb25hPC90ZXh0Pjx0ZXh0IGZpbGw9IiMwMDAwMDAiIGZvbnQtZmFtaWx5PSJzYW5zLXNlcmlmIiBmb250LXNpemU9IjE0IiBsZW5ndGhBZGp1c3Q9InNwYWNpbmciIHRleHRMZW5ndGg9IjciIHg9IjM3NiIgeT0iMTkyLjAxNTYiPiYjMTYwOzwvdGV4dD48dGV4dCBmaWxsPSIjMDAwMDAwIiBmb250LWZhbWlseT0ic2Fucy1zZXJpZiIgZm9udC1zaXplPSIxNCIgbGVuZ3RoQWRqdXN0PSJzcGFjaW5nIiB0ZXh0TGVuZ3RoPSIxNCIgeD0iMzgzIiB5PSIxOTIuMDE1NiI+ZWw8L3RleHQ+PHRleHQgZmlsbD0iIzAwMDAwMCIgZm9udC1mYW1pbHk9InNhbnMtc2VyaWYiIGZvbnQtc2l6ZT0iMTQiIGxlbmd0aEFkanVzdD0ic3BhY2luZyIgdGV4dExlbmd0aD0iNyIgeD0iMzk3IiB5PSIxOTIuMDE1NiI+JiMxNjA7PC90ZXh0Pjx0ZXh0IGZpbGw9IiMwMDAwMDAiIGZvbnQtZmFtaWx5PSJzYW5zLXNlcmlmIiBmb250LXNpemU9IjE0IiBsZW5ndGhBZGp1c3Q9InNwYWNpbmciIHRleHRMZW5ndGg9IjQ5IiB4PSI0MDQiIHk9IjE5Mi4wMTU2Ij5wcm9jZXNvPC90ZXh0Pjx0ZXh0IGZpbGw9IiMwMDAwMDAiIGZvbnQtZmFtaWx5PSJzYW5zLXNlcmlmIiBmb250LXNpemU9IjE0IiBsZW5ndGhBZGp1c3Q9InNwYWNpbmciIHRleHRMZW5ndGg9IjciIHg9IjQ1MyIgeT0iMTkyLjAxNTYiPiYjMTYwOzwvdGV4dD48dGV4dCBmaWxsPSIjMDAwMDAwIiBmb250LWZhbWlseT0ic2Fucy1zZXJpZiIgZm9udC1zaXplPSIxNCIgbGVuZ3RoQWRqdXN0PSJzcGFjaW5nIiB0ZXh0TGVuZ3RoPSIxNCIgeD0iNDYwIiB5PSIxOTIuMDE1NiI+ZGU8L3RleHQ+PHRleHQgZmlsbD0iIzAwMDAwMCIgZm9udC1mYW1pbHk9InNhbnMtc2VyaWYiIGZvbnQtc2l6ZT0iMTQiIGxlbmd0aEFkanVzdD0ic3BhY2luZyIgdGV4dExlbmd0aD0iNzciIHg9IjM1OC41IiB5PSIyMDciPmZhY3R1cmFjaSYjMjQzO248L3RleHQ+PC9nPjwhLS1lbnRpdHkgY2FsY3VsYWRvckNvbWlzaW9uZXMtLT48ZyBpZD0iZWxlbV9jYWxjdWxhZG9yQ29taXNpb25lcyI+PHJlY3QgZmlsbD0iIzg1QkJGMCIgaGVpZ2h0PSIxMDcuNzY1NiIgcng9IjIuNSIgcnk9IjIuNSIgc3R5bGU9InN0cm9rZTojNzhBOEQ4O3N0cm9rZS13aWR0aDowLjU7IiB3aWR0aD0iMjEyIiB4PSIyMyIgeT0iMjk0Ljk4NDQiLz48dGV4dCBmaWxsPSIjMDAwMDAwIiBmb250LWZhbWlseT0ic2Fucy1zZXJpZiIgZm9udC1zaXplPSIxMiIgZm9udC1zdHlsZT0iaXRhbGljIiBsZW5ndGhBZGp1c3Q9InNwYWNpbmciIHRleHRMZW5ndGg9IjcyIiB4PSI5MyIgeT0iMzE2LjMyODEiPiYjMTcxO2NvbXBvbmVudCYjMTg3OzwvdGV4dD48dGV4dCBmaWxsPSIjMDAwMDAwIiBmb250LWZhbWlseT0ic2Fucy1zZXJpZiIgZm9udC1zaXplPSIxNiIgZm9udC13ZWlnaHQ9ImJvbGQiIGxlbmd0aEFkanVzdD0ic3BhY2luZyIgdGV4dExlbmd0aD0iODAiIHg9IjMzIiB5PSIzMzIuOTUzMSI+Q2FsY3VsYWRvcjwvdGV4dD48dGV4dCBmaWxsPSIjMDAwMDAwIiBmb250LWZhbWlseT0ic2Fucy1zZXJpZiIgZm9udC1zaXplPSIxNiIgZm9udC13ZWlnaHQ9ImJvbGQiIGxlbmd0aEFkanVzdD0ic3BhY2luZyIgdGV4dExlbmd0aD0iOCIgeD0iMTEzIiB5PSIzMzIuOTUzMSI+JiMxNjA7PC90ZXh0Pjx0ZXh0IGZpbGw9IiMwMDAwMDAiIGZvbnQtZmFtaWx5PSJzYW5zLXNlcmlmIiBmb250LXNpemU9IjE2IiBmb250LXdlaWdodD0iYm9sZCIgbGVuZ3RoQWRqdXN0PSJzcGFjaW5nIiB0ZXh0TGVuZ3RoPSIxNiIgeD0iMTIxIiB5PSIzMzIuOTUzMSI+ZGU8L3RleHQ+PHRleHQgZmlsbD0iIzAwMDAwMCIgZm9udC1mYW1pbHk9InNhbnMtc2VyaWYiIGZvbnQtc2l6ZT0iMTYiIGZvbnQtd2VpZ2h0PSJib2xkIiBsZW5ndGhBZGp1c3Q9InNwYWNpbmciIHRleHRMZW5ndGg9IjgiIHg9IjEzNyIgeT0iMzMyLjk1MzEiPiYjMTYwOzwvdGV4dD48dGV4dCBmaWxsPSIjMDAwMDAwIiBmb250LWZhbWlseT0ic2Fucy1zZXJpZiIgZm9udC1zaXplPSIxNiIgZm9udC13ZWlnaHQ9ImJvbGQiIGxlbmd0aEFkanVzdD0ic3BhY2luZyIgdGV4dExlbmd0aD0iODAiIHg9IjE0NSIgeT0iMzMyLjk1MzEiPkNvbWlzaW9uZXM8L3RleHQ+PHRleHQgZmlsbD0iIzAwMDAwMCIgZm9udC1mYW1pbHk9InNhbnMtc2VyaWYiIGZvbnQtc2l6ZT0iMTIiIGZvbnQtc3R5bGU9Iml0YWxpYyIgbGVuZ3RoQWRqdXN0PSJzcGFjaW5nIiB0ZXh0TGVuZ3RoPSI3MyIgeD0iOTIuNSIgeT0iMzQ2LjI5NjkiPltDb21wb25lbnRdPC90ZXh0Pjx0ZXh0IGZpbGw9IiMwMDAwMDAiIGZvbnQtZmFtaWx5PSJzYW5zLXNlcmlmIiBmb250LXNpemU9IjE0IiBsZW5ndGhBZGp1c3Q9InNwYWNpbmciIHRleHRMZW5ndGg9IjciIHg9IjEyNS41IiB5PSIzNjEuMDMxMyI+JiMxNjA7PC90ZXh0Pjx0ZXh0IGZpbGw9IiMwMDAwMDAiIGZvbnQtZmFtaWx5PSJzYW5zLXNlcmlmIiBmb250LXNpemU9IjE0IiBsZW5ndGhBZGp1c3Q9InNwYWNpbmciIHRleHRMZW5ndGg9IjQ5IiB4PSI0NC41IiB5PSIzNzYuMDE1NiI+Q2FsY3VsYTwvdGV4dD48dGV4dCBmaWxsPSIjMDAwMDAwIiBmb250LWZhbWlseT0ic2Fucy1zZXJpZiIgZm9udC1zaXplPSIxNCIgbGVuZ3RoQWRqdXN0PSJzcGFjaW5nIiB0ZXh0TGVuZ3RoPSI3IiB4PSI5My41IiB5PSIzNzYuMDE1NiI+JiMxNjA7PC90ZXh0Pjx0ZXh0IGZpbGw9IiMwMDAwMDAiIGZvbnQtZmFtaWx5PSJzYW5zLXNlcmlmIiBmb250LXNpemU9IjE0IiBsZW5ndGhBZGp1c3Q9InNwYWNpbmciIHRleHRMZW5ndGg9IjcxIiB4PSIxMDAuNSIgeT0iMzc2LjAxNTYiPmNvbWlzaW9uZXM8L3RleHQ+PHRleHQgZmlsbD0iIzAwMDAwMCIgZm9udC1mYW1pbHk9InNhbnMtc2VyaWYiIGZvbnQtc2l6ZT0iMTQiIGxlbmd0aEFkanVzdD0ic3BhY2luZyIgdGV4dExlbmd0aD0iNyIgeD0iMTcxLjUiIHk9IjM3Ni4wMTU2Ij4mIzE2MDs8L3RleHQ+PHRleHQgZmlsbD0iIzAwMDAwMCIgZm9udC1mYW1pbHk9InNhbnMtc2VyaWYiIGZvbnQtc2l6ZT0iMTQiIGxlbmd0aEFkanVzdD0ic3BhY2luZyIgdGV4dExlbmd0aD0iMzUiIHg9IjE3OC41IiB5PSIzNzYuMDE1NiI+c2VnJiMyNTA7bjwvdGV4dD48dGV4dCBmaWxsPSIjMDAwMDAwIiBmb250LWZhbWlseT0ic2Fucy1zZXJpZiIgZm9udC1zaXplPSIxNCIgbGVuZ3RoQWRqdXN0PSJzcGFjaW5nIiB0ZXh0TGVuZ3RoPSI0MiIgeD0iNjkuNSIgeT0iMzkxIj5yZWdsYXM8L3RleHQ+PHRleHQgZmlsbD0iIzAwMDAwMCIgZm9udC1mYW1pbHk9InNhbnMtc2VyaWYiIGZvbnQtc2l6ZT0iMTQiIGxlbmd0aEFkanVzdD0ic3BhY2luZyIgdGV4dExlbmd0aD0iNyIgeD0iMTExLjUiIHk9IjM5MSI+JiMxNjA7PC90ZXh0Pjx0ZXh0IGZpbGw9IiMwMDAwMDAiIGZvbnQtZmFtaWx5PSJzYW5zLXNlcmlmIiBmb250LXNpemU9IjE0IiBsZW5ndGhBZGp1c3Q9InNwYWNpbmciIHRleHRMZW5ndGg9IjE0IiB4PSIxMTguNSIgeT0iMzkxIj5kZTwvdGV4dD48dGV4dCBmaWxsPSIjMDAwMDAwIiBmb250LWZhbWlseT0ic2Fucy1zZXJpZiIgZm9udC1zaXplPSIxNCIgbGVuZ3RoQWRqdXN0PSJzcGFjaW5nIiB0ZXh0TGVuZ3RoPSI3IiB4PSIxMzIuNSIgeT0iMzkxIj4mIzE2MDs8L3RleHQ+PHRleHQgZmlsbD0iIzAwMDAwMCIgZm9udC1mYW1pbHk9InNhbnMtc2VyaWYiIGZvbnQtc2l6ZT0iMTQiIGxlbmd0aEFkanVzdD0ic3BhY2luZyIgdGV4dExlbmd0aD0iNDkiIHg9IjEzOS41IiB5PSIzOTEiPm5lZ29jaW88L3RleHQ+PC9nPjwhLS1lbnRpdHkgZ2VuZXJhZG9yRmFjdHVyYXMtLT48ZyBpZD0iZWxlbV9nZW5lcmFkb3JGYWN0dXJhcyI+PHJlY3QgZmlsbD0iIzg1QkJGMCIgaGVpZ2h0PSIxMDcuNzY1NiIgcng9IjIuNSIgcnk9IjIuNSIgc3R5bGU9InN0cm9rZTojNzhBOEQ4O3N0cm9rZS13aWR0aDowLjU7IiB3aWR0aD0iMTg4IiB4PSIyNzAiIHk9IjI5NC45ODQ0Ii8+PHRleHQgZmlsbD0iIzAwMDAwMCIgZm9udC1mYW1pbHk9InNhbnMtc2VyaWYiIGZvbnQtc2l6ZT0iMTIiIGZvbnQtc3R5bGU9Iml0YWxpYyIgbGVuZ3RoQWRqdXN0PSJzcGFjaW5nIiB0ZXh0TGVuZ3RoPSI3MiIgeD0iMzI4IiB5PSIzMTYuMzI4MSI+JiMxNzE7Y29tcG9uZW50JiMxODc7PC90ZXh0Pjx0ZXh0IGZpbGw9IiMwMDAwMDAiIGZvbnQtZmFtaWx5PSJzYW5zLXNlcmlmIiBmb250LXNpemU9IjE2IiBmb250LXdlaWdodD0iYm9sZCIgbGVuZ3RoQWRqdXN0PSJzcGFjaW5nIiB0ZXh0TGVuZ3RoPSI3MiIgeD0iMjgwIiB5PSIzMzIuOTUzMSI+R2VuZXJhZG9yPC90ZXh0Pjx0ZXh0IGZpbGw9IiMwMDAwMDAiIGZvbnQtZmFtaWx5PSJzYW5zLXNlcmlmIiBmb250LXNpemU9IjE2IiBmb250LXdlaWdodD0iYm9sZCIgbGVuZ3RoQWRqdXN0PSJzcGFjaW5nIiB0ZXh0TGVuZ3RoPSI4IiB4PSIzNTIiIHk9IjMzMi45NTMxIj4mIzE2MDs8L3RleHQ+PHRleHQgZmlsbD0iIzAwMDAwMCIgZm9udC1mYW1pbHk9InNhbnMtc2VyaWYiIGZvbnQtc2l6ZT0iMTYiIGZvbnQtd2VpZ2h0PSJib2xkIiBsZW5ndGhBZGp1c3Q9InNwYWNpbmciIHRleHRMZW5ndGg9IjE2IiB4PSIzNjAiIHk9IjMzMi45NTMxIj5kZTwvdGV4dD48dGV4dCBmaWxsPSIjMDAwMDAwIiBmb250LWZhbWlseT0ic2Fucy1zZXJpZiIgZm9udC1zaXplPSIxNiIgZm9udC13ZWlnaHQ9ImJvbGQiIGxlbmd0aEFkanVzdD0ic3BhY2luZyIgdGV4dExlbmd0aD0iOCIgeD0iMzc2IiB5PSIzMzIuOTUzMSI+JiMxNjA7PC90ZXh0Pjx0ZXh0IGZpbGw9IiMwMDAwMDAiIGZvbnQtZmFtaWx5PSJzYW5zLXNlcmlmIiBmb250LXNpemU9IjE2IiBmb250LXdlaWdodD0iYm9sZCIgbGVuZ3RoQWRqdXN0PSJzcGFjaW5nIiB0ZXh0TGVuZ3RoPSI2NCIgeD0iMzg0IiB5PSIzMzIuOTUzMSI+RmFjdHVyYXM8L3RleHQ+PHRleHQgZmlsbD0iIzAwMDAwMCIgZm9udC1mYW1pbHk9InNhbnMtc2VyaWYiIGZvbnQtc2l6ZT0iMTIiIGZvbnQtc3R5bGU9Iml0YWxpYyIgbGVuZ3RoQWRqdXN0PSJzcGFjaW5nIiB0ZXh0TGVuZ3RoPSI3MyIgeD0iMzI3LjUiIHk9IjM0Ni4yOTY5Ij5bQ29tcG9uZW50XTwvdGV4dD48dGV4dCBmaWxsPSIjMDAwMDAwIiBmb250LWZhbWlseT0ic2Fucy1zZXJpZiIgZm9udC1zaXplPSIxNCIgbGVuZ3RoQWRqdXN0PSJzcGFjaW5nIiB0ZXh0TGVuZ3RoPSI3IiB4PSIzNjAuNSIgeT0iMzYxLjAzMTMiPiYjMTYwOzwvdGV4dD48dGV4dCBmaWxsPSIjMDAwMDAwIiBmb250LWZhbWlseT0ic2Fucy1zZXJpZiIgZm9udC1zaXplPSIxNCIgbGVuZ3RoQWRqdXN0PSJzcGFjaW5nIiB0ZXh0TGVuZ3RoPSI0MiIgeD0iMjkzLjUiIHk9IjM3Ni4wMTU2Ij5HZW5lcmE8L3RleHQ+PHRleHQgZmlsbD0iIzAwMDAwMCIgZm9udC1mYW1pbHk9InNhbnMtc2VyaWYiIGZvbnQtc2l6ZT0iMTQiIGxlbmd0aEFkanVzdD0ic3BhY2luZyIgdGV4dExlbmd0aD0iNyIgeD0iMzM1LjUiIHk9IjM3Ni4wMTU2Ij4mIzE2MDs8L3RleHQ+PHRleHQgZmlsbD0iIzAwMDAwMCIgZm9udC1mYW1pbHk9InNhbnMtc2VyaWYiIGZvbnQtc2l6ZT0iMTQiIGxlbmd0aEFkanVzdD0ic3BhY2luZyIgdGV4dExlbmd0aD0iNzEiIHg9IjM0Mi41IiB5PSIzNzYuMDE1NiI+ZG9jdW1lbnRvczwvdGV4dD48dGV4dCBmaWxsPSIjMDAwMDAwIiBmb250LWZhbWlseT0ic2Fucy1zZXJpZiIgZm9udC1zaXplPSIxNCIgbGVuZ3RoQWRqdXN0PSJzcGFjaW5nIiB0ZXh0TGVuZ3RoPSI3IiB4PSI0MTMuNSIgeT0iMzc2LjAxNTYiPiYjMTYwOzwvdGV4dD48dGV4dCBmaWxsPSIjMDAwMDAwIiBmb250LWZhbWlseT0ic2Fucy1zZXJpZiIgZm9udC1zaXplPSIxNCIgbGVuZ3RoQWRqdXN0PSJzcGFjaW5nIiB0ZXh0TGVuZ3RoPSIxNCIgeD0iNDIwLjUiIHk9IjM3Ni4wMTU2Ij5kZTwvdGV4dD48dGV4dCBmaWxsPSIjMDAwMDAwIiBmb250LWZhbWlseT0ic2Fucy1zZXJpZiIgZm9udC1zaXplPSIxNCIgbGVuZ3RoQWRqdXN0PSJzcGFjaW5nIiB0ZXh0TGVuZ3RoPSI3NyIgeD0iMzI1LjUiIHk9IjM5MSI+ZmFjdHVyYWNpJiMyNDM7bjwvdGV4dD48L2c+PCEtLWVudGl0eSBmYWN0dXJhY2lvbkRCLS0+PGcgaWQ9ImVsZW1fZmFjdHVyYWNpb25EQiI+PHJlY3QgZmlsbD0iIzg1QkJGMCIgaGVpZ2h0PSIxMDcuNzY1NiIgcng9IjIuNSIgcnk9IjIuNSIgc3R5bGU9InN0cm9rZTojNzhBOEQ4O3N0cm9rZS13aWR0aDowLjU7IiB3aWR0aD0iMjIwIiB4PSIxMDAiIHk9IjY2MC45ODQ0Ii8+PHRleHQgZmlsbD0iIzAwMDAwMCIgZm9udC1mYW1pbHk9InNhbnMtc2VyaWYiIGZvbnQtc2l6ZT0iMTIiIGZvbnQtc3R5bGU9Iml0YWxpYyIgbGVuZ3RoQWRqdXN0PSJzcGFjaW5nIiB0ZXh0TGVuZ3RoPSI3MiIgeD0iMTc0IiB5PSI2ODIuMzI4MSI+JiMxNzE7Y29tcG9uZW50JiMxODc7PC90ZXh0Pjx0ZXh0IGZpbGw9IiMwMDAwMDAiIGZvbnQtZmFtaWx5PSJzYW5zLXNlcmlmIiBmb250LXNpemU9IjE2IiBmb250LXdlaWdodD0iYm9sZCIgbGVuZ3RoQWRqdXN0PSJzcGFjaW5nIiB0ZXh0TGVuZ3RoPSIzMiIgeD0iMTEwIiB5PSI2OTguOTUzMSI+QmFzZTwvdGV4dD48dGV4dCBmaWxsPSIjMDAwMDAwIiBmb250LWZhbWlseT0ic2Fucy1zZXJpZiIgZm9udC1zaXplPSIxNiIgZm9udC13ZWlnaHQ9ImJvbGQiIGxlbmd0aEFkanVzdD0ic3BhY2luZyIgdGV4dExlbmd0aD0iOCIgeD0iMTQyIiB5PSI2OTguOTUzMSI+JiMxNjA7PC90ZXh0Pjx0ZXh0IGZpbGw9IiMwMDAwMDAiIGZvbnQtZmFtaWx5PSJzYW5zLXNlcmlmIiBmb250LXNpemU9IjE2IiBmb250LXdlaWdodD0iYm9sZCIgbGVuZ3RoQWRqdXN0PSJzcGFjaW5nIiB0ZXh0TGVuZ3RoPSIxNiIgeD0iMTUwIiB5PSI2OTguOTUzMSI+ZGU8L3RleHQ+PHRleHQgZmlsbD0iIzAwMDAwMCIgZm9udC1mYW1pbHk9InNhbnMtc2VyaWYiIGZvbnQtc2l6ZT0iMTYiIGZvbnQtd2VpZ2h0PSJib2xkIiBsZW5ndGhBZGp1c3Q9InNwYWNpbmciIHRleHRMZW5ndGg9IjgiIHg9IjE2NiIgeT0iNjk4Ljk1MzEiPiYjMTYwOzwvdGV4dD48dGV4dCBmaWxsPSIjMDAwMDAwIiBmb250LWZhbWlseT0ic2Fucy1zZXJpZiIgZm9udC1zaXplPSIxNiIgZm9udC13ZWlnaHQ9ImJvbGQiIGxlbmd0aEFkanVzdD0ic3BhY2luZyIgdGV4dExlbmd0aD0iNDAiIHg9IjE3NCIgeT0iNjk4Ljk1MzEiPkRhdG9zPC90ZXh0Pjx0ZXh0IGZpbGw9IiMwMDAwMDAiIGZvbnQtZmFtaWx5PSJzYW5zLXNlcmlmIiBmb250LXNpemU9IjE2IiBmb250LXdlaWdodD0iYm9sZCIgbGVuZ3RoQWRqdXN0PSJzcGFjaW5nIiB0ZXh0TGVuZ3RoPSI4IiB4PSIyMTQiIHk9IjY5OC45NTMxIj4mIzE2MDs8L3RleHQ+PHRleHQgZmlsbD0iIzAwMDAwMCIgZm9udC1mYW1pbHk9InNhbnMtc2VyaWYiIGZvbnQtc2l6ZT0iMTYiIGZvbnQtd2VpZ2h0PSJib2xkIiBsZW5ndGhBZGp1c3Q9InNwYWNpbmciIHRleHRMZW5ndGg9Ijg4IiB4PSIyMjIiIHk9IjY5OC45NTMxIj5GYWN0dXJhY2kmIzI0MztuPC90ZXh0Pjx0ZXh0IGZpbGw9IiMwMDAwMDAiIGZvbnQtZmFtaWx5PSJzYW5zLXNlcmlmIiBmb250LXNpemU9IjEyIiBmb250LXN0eWxlPSJpdGFsaWMiIGxlbmd0aEFkanVzdD0ic3BhY2luZyIgdGV4dExlbmd0aD0iNjEiIHg9IjE3OS41IiB5PSI3MTIuMjk2OSI+W01vbmdvREJdPC90ZXh0Pjx0ZXh0IGZpbGw9IiMwMDAwMDAiIGZvbnQtZmFtaWx5PSJzYW5zLXNlcmlmIiBmb250LXNpemU9IjE0IiBsZW5ndGhBZGp1c3Q9InNwYWNpbmciIHRleHRMZW5ndGg9IjciIHg9IjIwNi41IiB5PSI3MjcuMDMxMyI+JiMxNjA7PC90ZXh0Pjx0ZXh0IGZpbGw9IiMwMDAwMDAiIGZvbnQtZmFtaWx5PSJzYW5zLXNlcmlmIiBmb250LXNpemU9IjE0IiBsZW5ndGhBZGp1c3Q9InNwYWNpbmciIHRleHRMZW5ndGg9IjU3IiB4PSIxNTAiIHk9Ijc0Mi4wMTU2Ij5BbG1hY2VuYTwvdGV4dD48dGV4dCBmaWxsPSIjMDAwMDAwIiBmb250LWZhbWlseT0ic2Fucy1zZXJpZiIgZm9udC1zaXplPSIxNCIgbGVuZ3RoQWRqdXN0PSJzcGFjaW5nIiB0ZXh0TGVuZ3RoPSI3IiB4PSIyMDciIHk9Ijc0Mi4wMTU2Ij4mIzE2MDs8L3RleHQ+PHRleHQgZmlsbD0iIzAwMDAwMCIgZm9udC1mYW1pbHk9InNhbnMtc2VyaWYiIGZvbnQtc2l6ZT0iMTQiIGxlbmd0aEFkanVzdD0ic3BhY2luZyIgdGV4dExlbmd0aD0iMzUiIHg9IjIxNCIgeT0iNzQyLjAxNTYiPmRhdG9zPC90ZXh0Pjx0ZXh0IGZpbGw9IiMwMDAwMDAiIGZvbnQtZmFtaWx5PSJzYW5zLXNlcmlmIiBmb250LXNpemU9IjE0IiBsZW5ndGhBZGp1c3Q9InNwYWNpbmciIHRleHRMZW5ndGg9IjciIHg9IjI0OSIgeT0iNzQyLjAxNTYiPiYjMTYwOzwvdGV4dD48dGV4dCBmaWxsPSIjMDAwMDAwIiBmb250LWZhbWlseT0ic2Fucy1zZXJpZiIgZm9udC1zaXplPSIxNCIgbGVuZ3RoQWRqdXN0PSJzcGFjaW5nIiB0ZXh0TGVuZ3RoPSIxNCIgeD0iMjU2IiB5PSI3NDIuMDE1NiI+ZGU8L3RleHQ+PHRleHQgZmlsbD0iIzAwMDAwMCIgZm9udC1mYW1pbHk9InNhbnMtc2VyaWYiIGZvbnQtc2l6ZT0iMTQiIGxlbmd0aEFkanVzdD0ic3BhY2luZyIgdGV4dExlbmd0aD0iNzciIHg9IjEyNS41IiB5PSI3NTciPmZhY3R1cmFjaSYjMjQzO248L3RleHQ+PHRleHQgZmlsbD0iIzAwMDAwMCIgZm9udC1mYW1pbHk9InNhbnMtc2VyaWYiIGZvbnQtc2l6ZT0iMTQiIGxlbmd0aEFkanVzdD0ic3BhY2luZyIgdGV4dExlbmd0aD0iNyIgeD0iMjAyLjUiIHk9Ijc1NyI+JiMxNjA7PC90ZXh0Pjx0ZXh0IGZpbGw9IiMwMDAwMDAiIGZvbnQtZmFtaWx5PSJzYW5zLXNlcmlmIiBmb250LXNpemU9IjE0IiBsZW5ndGhBZGp1c3Q9InNwYWNpbmciIHRleHRMZW5ndGg9IjciIHg9IjIwOS41IiB5PSI3NTciPnk8L3RleHQ+PHRleHQgZmlsbD0iIzAwMDAwMCIgZm9udC1mYW1pbHk9InNhbnMtc2VyaWYiIGZvbnQtc2l6ZT0iMTQiIGxlbmd0aEFkanVzdD0ic3BhY2luZyIgdGV4dExlbmd0aD0iNyIgeD0iMjE2LjUiIHk9Ijc1NyI+JiMxNjA7PC90ZXh0Pjx0ZXh0IGZpbGw9IiMwMDAwMDAiIGZvbnQtZmFtaWx5PSJzYW5zLXNlcmlmIiBmb250LXNpemU9IjE0IiBsZW5ndGhBZGp1c3Q9InNwYWNpbmciIHRleHRMZW5ndGg9IjcxIiB4PSIyMjMuNSIgeT0iNzU3Ij5jb21pc2lvbmVzPC90ZXh0PjwvZz48IS0tZW50aXR5IHRyYW5zYWNjaW9uZXMtLT48ZyBpZD0iZWxlbV90cmFuc2FjY2lvbmVzIj48cmVjdCBmaWxsPSIjOTk5OTk5IiBoZWlnaHQ9IjExMi4wNDY5IiByeD0iMi41IiByeT0iMi41IiBzdHlsZT0ic3Ryb2tlOiM4QThBOEE7c3Ryb2tlLXdpZHRoOjAuNTsiIHdpZHRoPSIxNjgiIHg9IjUzMCIgeT0iMjkyLjk4NDQiLz48dGV4dCBmaWxsPSIjRkZGRkZGIiBmb250LWZhbWlseT0ic2Fucy1zZXJpZiIgZm9udC1zaXplPSIxMiIgZm9udC1zdHlsZT0iaXRhbGljIiBsZW5ndGhBZGp1c3Q9InNwYWNpbmciIHRleHRMZW5ndGg9IjExMiIgeD0iNTU4IiB5PSIzMTQuMzI4MSI+JiMxNzE7ZXh0ZXJuYWxfc3lzdGVtJiMxODc7PC90ZXh0Pjx0ZXh0IGZpbGw9IiNGRkZGRkYiIGZvbnQtZmFtaWx5PSJzYW5zLXNlcmlmIiBmb250LXNpemU9IjE2IiBmb250LXdlaWdodD0iYm9sZCIgbGVuZ3RoQWRqdXN0PSJzcGFjaW5nIiB0ZXh0TGVuZ3RoPSIxMDQiIHg9IjU1MCIgeT0iMzMwLjk1MzEiPk1pY3Jvc2VydmljaW88L3RleHQ+PHRleHQgZmlsbD0iI0ZGRkZGRiIgZm9udC1mYW1pbHk9InNhbnMtc2VyaWYiIGZvbnQtc2l6ZT0iMTYiIGZvbnQtd2VpZ2h0PSJib2xkIiBsZW5ndGhBZGp1c3Q9InNwYWNpbmciIHRleHRMZW5ndGg9IjgiIHg9IjY1NCIgeT0iMzMwLjk1MzEiPiYjMTYwOzwvdGV4dD48dGV4dCBmaWxsPSIjRkZGRkZGIiBmb250LWZhbWlseT0ic2Fucy1zZXJpZiIgZm9udC1zaXplPSIxNiIgZm9udC13ZWlnaHQ9ImJvbGQiIGxlbmd0aEFkanVzdD0ic3BhY2luZyIgdGV4dExlbmd0aD0iMTYiIHg9IjY2MiIgeT0iMzMwLjk1MzEiPmRlPC90ZXh0Pjx0ZXh0IGZpbGw9IiNGRkZGRkYiIGZvbnQtZmFtaWx5PSJzYW5zLXNlcmlmIiBmb250LXNpemU9IjE2IiBmb250LXdlaWdodD0iYm9sZCIgbGVuZ3RoQWRqdXN0PSJzcGFjaW5nIiB0ZXh0TGVuZ3RoPSIxMDQiIHg9IjU2MiIgeT0iMzQ4LjA3ODEiPlRyYW5zYWNjaW9uZXM8L3RleHQ+PHRleHQgZmlsbD0iI0ZGRkZGRiIgZm9udC1mYW1pbHk9InNhbnMtc2VyaWYiIGZvbnQtc2l6ZT0iMTQiIGxlbmd0aEFkanVzdD0ic3BhY2luZyIgdGV4dExlbmd0aD0iNyIgeD0iNjEwLjUiIHk9IjM2My4zMTI1Ij4mIzE2MDs8L3RleHQ+PHRleHQgZmlsbD0iI0ZGRkZGRiIgZm9udC1mYW1pbHk9InNhbnMtc2VyaWYiIGZvbnQtc2l6ZT0iMTQiIGxlbmd0aEFkanVzdD0ic3BhY2luZyIgdGV4dExlbmd0aD0iNDIiIHg9IjU0MCIgeT0iMzc4LjI5NjkiPlByb3ZlZTwvdGV4dD48dGV4dCBmaWxsPSIjRkZGRkZGIiBmb250LWZhbWlseT0ic2Fucy1zZXJpZiIgZm9udC1zaXplPSIxNCIgbGVuZ3RoQWRqdXN0PSJzcGFjaW5nIiB0ZXh0TGVuZ3RoPSI3IiB4PSI1ODIiIHk9IjM3OC4yOTY5Ij4mIzE2MDs8L3RleHQ+PHRleHQgZmlsbD0iI0ZGRkZGRiIgZm9udC1mYW1pbHk9InNhbnMtc2VyaWYiIGZvbnQtc2l6ZT0iMTQiIGxlbmd0aEFkanVzdD0ic3BhY2luZyIgdGV4dExlbmd0aD0iNzgiIHg9IjU4OSIgeT0iMzc4LjI5NjkiPmluZm9ybWFjaSYjMjQzO248L3RleHQ+PHRleHQgZmlsbD0iI0ZGRkZGRiIgZm9udC1mYW1pbHk9InNhbnMtc2VyaWYiIGZvbnQtc2l6ZT0iMTQiIGxlbmd0aEFkanVzdD0ic3BhY2luZyIgdGV4dExlbmd0aD0iNyIgeD0iNjY3IiB5PSIzNzguMjk2OSI+JiMxNjA7PC90ZXh0Pjx0ZXh0IGZpbGw9IiNGRkZGRkYiIGZvbnQtZmFtaWx5PSJzYW5zLXNlcmlmIiBmb250LXNpemU9IjE0IiBsZW5ndGhBZGp1c3Q9InNwYWNpbmciIHRleHRMZW5ndGg9IjE0IiB4PSI2NzQiIHk9IjM3OC4yOTY5Ij5kZTwvdGV4dD48dGV4dCBmaWxsPSIjRkZGRkZGIiBmb250LWZhbWlseT0ic2Fucy1zZXJpZiIgZm9udC1zaXplPSIxNCIgbGVuZ3RoQWRqdXN0PSJzcGFjaW5nIiB0ZXh0TGVuZ3RoPSI5MSIgeD0iNTY4LjUiIHk9IjM5My4yODEzIj50cmFuc2FjY2lvbmVzPC90ZXh0PjwvZz48IS0tZW50aXR5IGNvbWVyY2lvcy0tPjxnIGlkPSJlbGVtX2NvbWVyY2lvcyI+PHJlY3QgZmlsbD0iIzk5OTk5OSIgaGVpZ2h0PSIxMTIuMDQ2OSIgcng9IjIuNSIgcnk9IjIuNSIgc3R5bGU9InN0cm9rZTojOEE4QThBO3N0cm9rZS13aWR0aDowLjU7IiB3aWR0aD0iMTY4IiB4PSI3MzMiIHk9IjI5Mi45ODQ0Ii8+PHRleHQgZmlsbD0iI0ZGRkZGRiIgZm9udC1mYW1pbHk9InNhbnMtc2VyaWYiIGZvbnQtc2l6ZT0iMTIiIGZvbnQtc3R5bGU9Iml0YWxpYyIgbGVuZ3RoQWRqdXN0PSJzcGFjaW5nIiB0ZXh0TGVuZ3RoPSIxMTIiIHg9Ijc2MSIgeT0iMzE0LjMyODEiPiYjMTcxO2V4dGVybmFsX3N5c3RlbSYjMTg3OzwvdGV4dD48dGV4dCBmaWxsPSIjRkZGRkZGIiBmb250LWZhbWlseT0ic2Fucy1zZXJpZiIgZm9udC1zaXplPSIxNiIgZm9udC13ZWlnaHQ9ImJvbGQiIGxlbmd0aEFkanVzdD0ic3BhY2luZyIgdGV4dExlbmd0aD0iMTA0IiB4PSI3NTMiIHk9IjMzMC45NTMxIj5NaWNyb3NlcnZpY2lvPC90ZXh0Pjx0ZXh0IGZpbGw9IiNGRkZGRkYiIGZvbnQtZmFtaWx5PSJzYW5zLXNlcmlmIiBmb250LXNpemU9IjE2IiBmb250LXdlaWdodD0iYm9sZCIgbGVuZ3RoQWRqdXN0PSJzcGFjaW5nIiB0ZXh0TGVuZ3RoPSI4IiB4PSI4NTciIHk9IjMzMC45NTMxIj4mIzE2MDs8L3RleHQ+PHRleHQgZmlsbD0iI0ZGRkZGRiIgZm9udC1mYW1pbHk9InNhbnMtc2VyaWYiIGZvbnQtc2l6ZT0iMTYiIGZvbnQtd2VpZ2h0PSJib2xkIiBsZW5ndGhBZGp1c3Q9InNwYWNpbmciIHRleHRMZW5ndGg9IjE2IiB4PSI4NjUiIHk9IjMzMC45NTMxIj5kZTwvdGV4dD48dGV4dCBmaWxsPSIjRkZGRkZGIiBmb250LWZhbWlseT0ic2Fucy1zZXJpZiIgZm9udC1zaXplPSIxNiIgZm9udC13ZWlnaHQ9ImJvbGQiIGxlbmd0aEFkanVzdD0ic3BhY2luZyIgdGV4dExlbmd0aD0iNzIiIHg9Ijc4MSIgeT0iMzQ4LjA3ODEiPkNvbWVyY2lvczwvdGV4dD48dGV4dCBmaWxsPSIjRkZGRkZGIiBmb250LWZhbWlseT0ic2Fucy1zZXJpZiIgZm9udC1zaXplPSIxNCIgbGVuZ3RoQWRqdXN0PSJzcGFjaW5nIiB0ZXh0TGVuZ3RoPSI3IiB4PSI4MTMuNSIgeT0iMzYzLjMxMjUiPiYjMTYwOzwvdGV4dD48dGV4dCBmaWxsPSIjRkZGRkZGIiBmb250LWZhbWlseT0ic2Fucy1zZXJpZiIgZm9udC1zaXplPSIxNCIgbGVuZ3RoQWRqdXN0PSJzcGFjaW5nIiB0ZXh0TGVuZ3RoPSI0MiIgeD0iNzQzIiB5PSIzNzguMjk2OSI+UHJvdmVlPC90ZXh0Pjx0ZXh0IGZpbGw9IiNGRkZGRkYiIGZvbnQtZmFtaWx5PSJzYW5zLXNlcmlmIiBmb250LXNpemU9IjE0IiBsZW5ndGhBZGp1c3Q9InNwYWNpbmciIHRleHRMZW5ndGg9IjciIHg9Ijc4NSIgeT0iMzc4LjI5NjkiPiYjMTYwOzwvdGV4dD48dGV4dCBmaWxsPSIjRkZGRkZGIiBmb250LWZhbWlseT0ic2Fucy1zZXJpZiIgZm9udC1zaXplPSIxNCIgbGVuZ3RoQWRqdXN0PSJzcGFjaW5nIiB0ZXh0TGVuZ3RoPSI3OCIgeD0iNzkyIiB5PSIzNzguMjk2OSI+aW5mb3JtYWNpJiMyNDM7bjwvdGV4dD48dGV4dCBmaWxsPSIjRkZGRkZGIiBmb250LWZhbWlseT0ic2Fucy1zZXJpZiIgZm9udC1zaXplPSIxNCIgbGVuZ3RoQWRqdXN0PSJzcGFjaW5nIiB0ZXh0TGVuZ3RoPSI3IiB4PSI4NzAiIHk9IjM3OC4yOTY5Ij4mIzE2MDs8L3RleHQ+PHRleHQgZmlsbD0iI0ZGRkZGRiIgZm9udC1mYW1pbHk9InNhbnMtc2VyaWYiIGZvbnQtc2l6ZT0iMTQiIGxlbmd0aEFkanVzdD0ic3BhY2luZyIgdGV4dExlbmd0aD0iMTQiIHg9Ijg3NyIgeT0iMzc4LjI5NjkiPmRlPC90ZXh0Pjx0ZXh0IGZpbGw9IiNGRkZGRkYiIGZvbnQtZmFtaWx5PSJzYW5zLXNlcmlmIiBmb250LXNpemU9IjE0IiBsZW5ndGhBZGp1c3Q9InNwYWNpbmciIHRleHRMZW5ndGg9IjY0IiB4PSI3ODUiIHk9IjM5My4yODEzIj5jb21lcmNpb3M8L3RleHQ+PC9nPjwhLS1saW5rIGdlc3Rpb25Db21pc2lvbmVzIHRvIGZhY3R1cmFjaW9uREItLT48ZyBpZD0ibGlua19nZXN0aW9uQ29taXNpb25lc19mYWN0dXJhY2lvbkRCIj48cGF0aCBkPSJNMTgxLjA4LDU4Ny4wMTQ0IEMxODYuMzcsNjEwLjI0NDQgMTkwLjc5Miw2MjkuNjU0NSAxOTYuMDkyLDY1Mi45MDQ1ICIgZmlsbD0ibm9uZSIgaWQ9Imdlc3Rpb25Db21pc2lvbmVzLXRvLWZhY3R1cmFjaW9uREIiIHN0eWxlPSJzdHJva2U6IzY2NjY2NjtzdHJva2Utd2lkdGg6MS4wOyIvPjxwb2x5Z29uIGZpbGw9IiM2NjY2NjYiIHBvaW50cz0iMTk3Ljg3LDY2MC43MDQ0LDE5OS4wMTY5LDY1Mi4yMzc3LDE5My4xNjcsNjUzLjU3MTIsMTk3Ljg3LDY2MC43MDQ0IiBzdHlsZT0ic3Ryb2tlOiM2NjY2NjY7c3Ryb2tlLXdpZHRoOjEuMDsiLz48dGV4dCBmaWxsPSIjNjY2NjY2IiBmb250LWZhbWlseT0ic2Fucy1zZXJpZiIgZm9udC1zaXplPSIxMiIgZm9udC13ZWlnaHQ9ImJvbGQiIGxlbmd0aEFkanVzdD0ic3BhY2luZyIgdGV4dExlbmd0aD0iNzMiIHg9IjE5MiIgeT0iNjI5LjMyODEiPkxlZS9Fc2NyaWJlPC90ZXh0PjwvZz48IS0tbGluayBnZXN0aW9uRmFjdHVyYWNpb24gdG8gZmFjdHVyYWNpb25EQi0tPjxnIGlkPSJsaW5rX2dlc3Rpb25GYWN0dXJhY2lvbl9mYWN0dXJhY2lvbkRCIj48cGF0aCBkPSJNNDM5LjIyLDIxOS4wNTQ0IEM0NTMuODgsMjQwLjY5NDQgNDY4LjUxLDI2Ni43NjQ0IDQ3NiwyOTIuOTg0NCBDNDg5LjY3LDM0MC44NDQ0IDQ5My4zMiwzNTguMzE0NCA0NzYsNDA0Ljk4NDQgQzQzNi42NSw1MTAuOTk0NCAzNDguOTAzNCw1OTkuODE3MyAyODMuOTEzNCw2NTUuNTM3MyAiIGZpbGw9Im5vbmUiIGlkPSJnZXN0aW9uRmFjdHVyYWNpb24tdG8tZmFjdHVyYWNpb25EQiIgc3R5bGU9InN0cm9rZTojNjY2NjY2O3N0cm9rZS13aWR0aDoxLjA7Ii8+PHBvbHlnb24gZmlsbD0iIzY2NjY2NiIgcG9pbnRzPSIyNzcuODQsNjYwLjc0NDQsMjg1Ljg2NjEsNjU3LjgxNDgsMjgxLjk2MDcsNjUzLjI1OTgsMjc3Ljg0LDY2MC43NDQ0IiBzdHlsZT0ic3Ryb2tlOiM2NjY2NjY7c3Ryb2tlLXdpZHRoOjEuMDsiLz48dGV4dCBmaWxsPSIjNjY2NjY2IiBmb250LWZhbWlseT0ic2Fucy1zZXJpZiIgZm9udC1zaXplPSIxMiIgZm9udC13ZWlnaHQ9ImJvbGQiIGxlbmd0aEFkanVzdD0ic3BhY2luZyIgdGV4dExlbmd0aD0iNzMiIHg9IjQ2MyIgeT0iNDQ3LjMyODEiPkxlZS9Fc2NyaWJlPC90ZXh0PjwvZz48IS0tbGluayBnZXN0aW9uRmFjdHVyYWNpb24gdG8gY2FsY3VsYWRvckNvbWlzaW9uZXMtLT48ZyBpZD0ibGlua19nZXN0aW9uRmFjdHVyYWNpb25fY2FsY3VsYWRvckNvbWlzaW9uZXMiPjxwYXRoIGQ9Ik0zMTguNzYsMjE5LjExNDQgQzI4My42OSwyNDIuOTM0NCAyNDkuMDM5LDI2Ni40NzEyIDIxMy45NDksMjkwLjI5MTIgIiBmaWxsPSJub25lIiBpZD0iZ2VzdGlvbkZhY3R1cmFjaW9uLXRvLWNhbGN1bGFkb3JDb21pc2lvbmVzIiBzdHlsZT0ic3Ryb2tlOiM2NjY2NjY7c3Ryb2tlLXdpZHRoOjEuMDsiLz48cG9seWdvbiBmaWxsPSIjNjY2NjY2IiBwb2ludHM9IjIwNy4zMywyOTQuNzg0NCwyMTUuNjM0LDI5Mi43NzMzLDIxMi4yNjQxLDI4Ny44MDkxLDIwNy4zMywyOTQuNzg0NCIgc3R5bGU9InN0cm9rZTojNjY2NjY2O3N0cm9rZS13aWR0aDoxLjA7Ii8+PHRleHQgZmlsbD0iIzY2NjY2NiIgZm9udC1mYW1pbHk9InNhbnMtc2VyaWYiIGZvbnQtc2l6ZT0iMTIiIGZvbnQtd2VpZ2h0PSJib2xkIiBsZW5ndGhBZGp1c3Q9InNwYWNpbmciIHRleHRMZW5ndGg9IjIxIiB4PSIyNzMiIHk9IjI2MS4zMjgxIj5Vc2E8L3RleHQ+PC9nPjwhLS1saW5rIGdlc3Rpb25GYWN0dXJhY2lvbiB0byBnZW5lcmFkb3JGYWN0dXJhcy0tPjxnIGlkPSJsaW5rX2dlc3Rpb25GYWN0dXJhY2lvbl9nZW5lcmFkb3JGYWN0dXJhcyI+PHBhdGggZD0iTTM4Ny4zNywyMTkuMTE0NCBDMzgzLjA1LDI0Mi45MzQ0IDM3OS4zOTc2LDI2My4wOTI4IDM3NS4wNzc2LDI4Ni45MTI4ICIgZmlsbD0ibm9uZSIgaWQ9Imdlc3Rpb25GYWN0dXJhY2lvbi10by1nZW5lcmFkb3JGYWN0dXJhcyIgc3R5bGU9InN0cm9rZTojNjY2NjY2O3N0cm9rZS13aWR0aDoxLjA7Ii8+PHBvbHlnb24gZmlsbD0iIzY2NjY2NiIgcG9pbnRzPSIzNzMuNjUsMjk0Ljc4NDQsMzc4LjAyOTQsMjg3LjQ0ODEsMzcyLjEyNTcsMjg2LjM3NzQsMzczLjY1LDI5NC43ODQ0IiBzdHlsZT0ic3Ryb2tlOiM2NjY2NjY7c3Ryb2tlLXdpZHRoOjEuMDsiLz48dGV4dCBmaWxsPSIjNjY2NjY2IiBmb250LWZhbWlseT0ic2Fucy1zZXJpZiIgZm9udC1zaXplPSIxMiIgZm9udC13ZWlnaHQ9ImJvbGQiIGxlbmd0aEFkanVzdD0ic3BhY2luZyIgdGV4dExlbmd0aD0iMjEiIHg9IjM4MiIgeT0iMjYxLjMyODEiPlVzYTwvdGV4dD48L2c+PCEtLWxpbmsgY2FsY3VsYWRvckNvbWlzaW9uZXMgdG8gZ2VzdGlvbkNvbWlzaW9uZXMtLT48ZyBpZD0ibGlua19jYWxjdWxhZG9yQ29taXNpb25lc19nZXN0aW9uQ29taXNpb25lcyI+PHBhdGggZD0iTTE0MC42OCw0MDMuMTE0NCBDMTQ1LjkxLDQyNi45MzQ0IDE1MC4zNTEyLDQ0Ny4xNTEyIDE1NS41OTEyLDQ3MC45NzEyICIgZmlsbD0ibm9uZSIgaWQ9ImNhbGN1bGFkb3JDb21pc2lvbmVzLXRvLWdlc3Rpb25Db21pc2lvbmVzIiBzdHlsZT0ic3Ryb2tlOiM2NjY2NjY7c3Ryb2tlLXdpZHRoOjEuMDsiLz48cG9seWdvbiBmaWxsPSIjNjY2NjY2IiBwb2ludHM9IjE1Ny4zMSw0NzguNzg0NCwxNTguNTIxMiw0NzAuMzI2NywxNTIuNjYxMyw0NzEuNjE1NywxNTcuMzEsNDc4Ljc4NDQiIHN0eWxlPSJzdHJva2U6IzY2NjY2NjtzdHJva2Utd2lkdGg6MS4wOyIvPjx0ZXh0IGZpbGw9IiM2NjY2NjYiIGZvbnQtZmFtaWx5PSJzYW5zLXNlcmlmIiBmb250LXNpemU9IjEyIiBmb250LXdlaWdodD0iYm9sZCIgbGVuZ3RoQWRqdXN0PSJzcGFjaW5nIiB0ZXh0TGVuZ3RoPSIyMSIgeD0iMTUyIiB5PSI0NDcuMzI4MSI+VXNhPC90ZXh0PjwvZz48IS0tbGluayBnZXN0aW9uRmFjdHVyYWNpb24gdG8gdHJhbnNhY2Npb25lcy0tPjxnIGlkPSJsaW5rX2dlc3Rpb25GYWN0dXJhY2lvbl90cmFuc2FjY2lvbmVzIj48cGF0aCBkPSJNNDY2LjIyLDIxOS4xNTQ0IEM0NzguNTgsMjI4LjkzNDQgNDkxLjI1LDIzOS4xNjQ0IDUwMywyNDguOTg0NCBDNTE5LjY0LDI2Mi44OTQ0IDUzMS4zMzcsMjczLjAxMjQgNTQ3LjU3NywyODcuNDgyNCAiIGZpbGw9Im5vbmUiIGlkPSJnZXN0aW9uRmFjdHVyYWNpb24tdG8tdHJhbnNhY2Npb25lcyIgc3R5bGU9InN0cm9rZTojNjY2NjY2O3N0cm9rZS13aWR0aDoxLjA7Ii8+PHBvbHlnb24gZmlsbD0iIzY2NjY2NiIgcG9pbnRzPSI1NTMuNTUsMjkyLjgwNDQsNTQ5LjU3MjgsMjg1LjI0MjUsNTQ1LjU4MTMsMjg5LjcyMjMsNTUzLjU1LDI5Mi44MDQ0IiBzdHlsZT0ic3Ryb2tlOiM2NjY2NjY7c3Ryb2tlLXdpZHRoOjEuMDsiLz48dGV4dCBmaWxsPSIjNjY2NjY2IiBmb250LWZhbWlseT0ic2Fucy1zZXJpZiIgZm9udC1zaXplPSIxMiIgZm9udC13ZWlnaHQ9ImJvbGQiIGxlbmd0aEFkanVzdD0ic3BhY2luZyIgdGV4dExlbmd0aD0iNTQiIHg9IjUxOSIgeT0iMjYxLjMyODEiPkNvbnN1bHRhPC90ZXh0PjwvZz48IS0tbGluayBnZXN0aW9uRmFjdHVyYWNpb24gdG8gY29tZXJjaW9zLS0+PGcgaWQ9ImxpbmtfZ2VzdGlvbkZhY3R1cmFjaW9uX2NvbWVyY2lvcyI+PHBhdGggZD0iTTQ5NS4zMSwyMDEuNjM0NCBDNTU5LjA1LDIyNS41OTQ0IDY0My40MiwyNTguOTI0NCA3MTYsMjkyLjk4NDQgQzcyMS41MSwyOTUuNTc0NCA3MjAuMDA0NywyOTQuNzI2NCA3MjUuNjQ0NywyOTcuNTY2NCAiIGZpbGw9Im5vbmUiIGlkPSJnZXN0aW9uRmFjdHVyYWNpb24tdG8tY29tZXJjaW9zIiBzdHlsZT0ic3Ryb2tlOiM2NjY2NjY7c3Ryb2tlLXdpZHRoOjEuMDsiLz48cG9seWdvbiBmaWxsPSIjNjY2NjY2IiBwb2ludHM9IjczMi43OSwzMDEuMTY0NCw3MjYuOTk0LDI5NC44ODY5LDcyNC4yOTU1LDMwMC4yNDU5LDczMi43OSwzMDEuMTY0NCIgc3R5bGU9InN0cm9rZTojNjY2NjY2O3N0cm9rZS13aWR0aDoxLjA7Ii8+PHRleHQgZmlsbD0iIzY2NjY2NiIgZm9udC1mYW1pbHk9InNhbnMtc2VyaWYiIGZvbnQtc2l6ZT0iMTIiIGZvbnQtd2VpZ2h0PSJib2xkIiBsZW5ndGhBZGp1c3Q9InNwYWNpbmciIHRleHRMZW5ndGg9IjU0IiB4PSI2NDgiIHk9IjI2MS4zMjgxIj5Db25zdWx0YTwvdGV4dD48L2c+PCEtLVNSQz1bZExKMVJqaW0zQnR4QXBJVktjMmZCcGxqalpYakJtckdSRWl2TzZKNjVJMkJYWVlyMnVQenBCdlhqcnRwT3dETW54NHA5bU5jWW10b0ZKdS1ZbDh4dXhJRDVRZ2Q0NWgtTTFHVU5ndmg0dnhZOVo5d0pJd1cyelVRY2dBcnU0OWl4OW4zUFNzY0EzX0M3ckJlU05MVkRDMDFsT0pNOUpLamtTSGYxUGpibUdJQlFjY1d6ajIwNGdLVVdRcGNRY01xOXI1d0RqZkdJai0yM2o2M0RsalZCaWpBUUcyQ0d4elVLN0dMLURyaVVtMkdVd19vWV9weUlkdEZiM296dmduNjNpQUtXNjV2OHFrRGtuR0pVRFRUYnlXYnFfRm8wdW1TQTBraVQ4ekpFeUxIMGxrVkxhVEJkNXpESXp3RS1YdmdaYmUtZ3VmTWpQdXF5Yi1Sc3Y3RDRxS0RnSE1lbzh6eWJkdHUzUVNUUzZZSWlUeF9UaWZaZFRtQnRNNUR1Y04yaFBuTXFrWFNsR3d1WW10U0ppcXRlTEg1RVpPSThkeEp2czBMYldrZmkwMzZINWYyT2YtRVRLTWtma0tZVk53bzNNWUtlTE9tZUlDZFVkR2tlWi1veENqRTVoblB0dG1CaS0zMUNNWHpjRWVfNl9YcjI0WGczdndVNFBMbk1fOUQ5bzZ1S0k2SDZNWThsNW0tR3ZGcm9xRm9Ha3MtV0RKREZnRVRzbGxKd1RxWjVaVWlsVGNXaTBRYXFVUi03LWxDSFp1b04yMURoVEFIQ0xyb3dkd19TaXhBZDF3ZV83Q3VzZDJmaS03djdFNV8wMDAwXS0tPjwvZz48L3N2Zz4=;" vertex="1" parent="1">
            <mxGeometry x="-260" y="-140" width="907" height="790" as="geometry" />
          </mxCell>
        </UserObject>
        <UserObject label="" plantUmlData="{&quot;data&quot;:&quot;@startuml\n!include https://raw.githubusercontent.com/plantuml-stdlib/C4-PlantUML/master/C4_Component.puml\n\ntitle Diagrama de Componentes - Microservicio de Facturación\n\nContainer_Boundary(facturacion, \&quot;Microservicio de Facturación\&quot;) {\n    Component(comisionController, \&quot;Controlador de Comisiones\&quot;, \&quot;Spring REST Controller\&quot;, \&quot;Gestiona endpoints para configuración de comisiones\&quot;)\n    Component(facturacionController, \&quot;Controlador de Facturación\&quot;, \&quot;Spring REST Controller\&quot;, \&quot;Gestiona endpoints para proceso de facturación\&quot;)\n    \n    Component(comisionService, \&quot;Servicio de Comisiones\&quot;, \&quot;Spring Service\&quot;, \&quot;Lógica de negocio para cálculo y gestión de comisiones\&quot;)\n    Component(facturacionService, \&quot;Servicio de Facturación\&quot;, \&quot;Spring Service\&quot;, \&quot;Lógica de negocio para proceso de facturación\&quot;)\n    \n    Component(calculadorComisiones, \&quot;Calculador de Comisiones\&quot;, \&quot;Component\&quot;, \&quot;Calcula comisiones según reglas de negocio\&quot;)\n    Component(generadorFacturas, \&quot;Generador de Facturas\&quot;, \&quot;Component\&quot;, \&quot;Genera documentos de facturación\&quot;)\n    \n    Component(facturacionDB, \&quot;Base de Datos Facturación\&quot;, \&quot;MongoDB\&quot;, \&quot;Almacena datos de facturación y comisiones\&quot;)\n}\n\nSystem_Ext(transacciones, \&quot;Microservicio de Transacciones\&quot;, \&quot;Provee información de transacciones\&quot;)\nSystem_Ext(comercios, \&quot;Microservicio de Comercios\&quot;, \&quot;Provee información de comercios\&quot;)\n\nRel(comisionController, comisionService, \&quot;Usa\&quot;)\nRel(facturacionController, facturacionService, \&quot;Usa\&quot;)\n\nRel(comisionService, facturacionDB, \&quot;Lee/Escribe\&quot;)\nRel(facturacionService, facturacionDB, \&quot;Lee/Escribe\&quot;)\n\nRel(facturacionService, calculadorComisiones, \&quot;Usa\&quot;)\nRel(facturacionService, generadorFacturas, \&quot;Usa\&quot;)\nRel(calculadorComisiones, comisionService, \&quot;Usa\&quot;)\n\nRel(facturacionService, transacciones, \&quot;Consulta transacciones\&quot;, \&quot;REST\&quot;)\nRel(facturacionService, comercios, \&quot;Consulta comercios\&quot;, \&quot;REST\&quot;)\n\n@enduml&quot;,&quot;format&quot;:&quot;svg&quot;}" id="hBmAJ28AIjuTRTe7ucdd-2">
          <mxCell style="shape=image;noLabel=1;verticalAlign=top;aspect=fixed;imageAspect=0;image=data:image/svg+xml,PD94bWwgdmVyc2lvbj0iMS4wIiBlbmNvZGluZz0idXMtYXNjaWkiIHN0YW5kYWxvbmU9Im5vIj8+PHN2ZyB4bWxucz0iaHR0cDovL3d3dy53My5vcmcvMjAwMC9zdmciIHhtbG5zOnhsaW5rPSJodHRwOi8vd3d3LnczLm9yZy8xOTk5L3hsaW5rIiBjb250ZW50U3R5bGVUeXBlPSJ0ZXh0L2NzcyIgaGVpZ2h0PSIxMDE3cHgiIHByZXNlcnZlQXNwZWN0UmF0aW89Im5vbmUiIHN0eWxlPSJ3aWR0aDoxMTYycHg7aGVpZ2h0OjEwMTdweDtiYWNrZ3JvdW5kOiNGRkZGRkY7IiB2ZXJzaW9uPSIxLjEiIHZpZXdCb3g9IjAgMCAxMTYyIDEwMTciIHdpZHRoPSIxMTYycHgiIHpvb21BbmRQYW49Im1hZ25pZnkiPjxkZWZzLz48Zz48dGV4dCBmaWxsPSIjMDAwMDAwIiBmb250LWZhbWlseT0ic2Fucy1zZXJpZiIgZm9udC1zaXplPSIxNCIgZm9udC13ZWlnaHQ9ImJvbGQiIGxlbmd0aEFkanVzdD0ic3BhY2luZyIgdGV4dExlbmd0aD0iMzgwIiB4PSIzODQiIHk9IjIzLjIzNDQiPkRpYWdyYW1hIGRlIENvbXBvbmVudGVzIC0gTWljcm9zZXJ2aWNpbyBkZSBGYWN0dXJhY2kmIzI0MztuPC90ZXh0PjwhLS1jbHVzdGVyIGZhY3R1cmFjaW9uLS0+PGcgaWQ9ImNsdXN0ZXJfZmFjdHVyYWNpb24iPjxyZWN0IGZpbGw9Im5vbmUiIGhlaWdodD0iOTY5IiByeD0iMi41IiByeT0iMi41IiBzdHlsZT0ic3Ryb2tlOiM0NDQ0NDQ7c3Ryb2tlLXdpZHRoOjEuMDtzdHJva2UtZGFzaGFycmF5OjcuMCw3LjA7IiB3aWR0aD0iNzU5IiB4PSI3IiB5PSI0Mi45ODQ0Ii8+PHRleHQgZmlsbD0iIzQ0NDQ0NCIgZm9udC1mYW1pbHk9InNhbnMtc2VyaWYiIGZvbnQtc2l6ZT0iMTYiIGZvbnQtd2VpZ2h0PSJib2xkIiBsZW5ndGhBZGp1c3Q9InNwYWNpbmciIHRleHRMZW5ndGg9IjIyNCIgeD0iMjc0LjUiIHk9IjgwLjEwOTQiPk1pY3Jvc2VydmljaW8gZGUgRmFjdHVyYWNpJiMyNDM7bjwvdGV4dD48dGV4dCBmaWxsPSIjNDQ0NDQ0IiBmb250LWZhbWlseT0ic2Fucy1zZXJpZiIgZm9udC1zaXplPSIxMiIgZm9udC13ZWlnaHQ9ImJvbGQiIGxlbmd0aEFkanVzdD0ic3BhY2luZyIgdGV4dExlbmd0aD0iNzIiIHg9IjM1MC41IiB5PSI5My40NTMxIj5bY29udGFpbmVyXTwvdGV4dD48L2c+PCEtLWVudGl0eSBjb21pc2lvbkNvbnRyb2xsZXItLT48ZyBpZD0iZWxlbV9jb21pc2lvbkNvbnRyb2xsZXIiPjxyZWN0IGZpbGw9IiM4NUJCRjAiIGhlaWdodD0iMTA3Ljc2NTYiIHJ4PSIyLjUiIHJ5PSIyLjUiIHN0eWxlPSJzdHJva2U6Izc4QThEODtzdHJva2Utd2lkdGg6MC41OyIgd2lkdGg9IjIyMCIgeD0iNDkzIiB5PSI1MDYuOTg0NCIvPjx0ZXh0IGZpbGw9IiMwMDAwMDAiIGZvbnQtZmFtaWx5PSJzYW5zLXNlcmlmIiBmb250LXNpemU9IjEyIiBmb250LXN0eWxlPSJpdGFsaWMiIGxlbmd0aEFkanVzdD0ic3BhY2luZyIgdGV4dExlbmd0aD0iNzIiIHg9IjU2NyIgeT0iNTI4LjMyODEiPiYjMTcxO2NvbXBvbmVudCYjMTg3OzwvdGV4dD48dGV4dCBmaWxsPSIjMDAwMDAwIiBmb250LWZhbWlseT0ic2Fucy1zZXJpZiIgZm9udC1zaXplPSIxNiIgZm9udC13ZWlnaHQ9ImJvbGQiIGxlbmd0aEFkanVzdD0ic3BhY2luZyIgdGV4dExlbmd0aD0iODgiIHg9IjUwMyIgeT0iNTQ0Ljk1MzEiPkNvbnRyb2xhZG9yPC90ZXh0Pjx0ZXh0IGZpbGw9IiMwMDAwMDAiIGZvbnQtZmFtaWx5PSJzYW5zLXNlcmlmIiBmb250LXNpemU9IjE2IiBmb250LXdlaWdodD0iYm9sZCIgbGVuZ3RoQWRqdXN0PSJzcGFjaW5nIiB0ZXh0TGVuZ3RoPSI4IiB4PSI1OTEiIHk9IjU0NC45NTMxIj4mIzE2MDs8L3RleHQ+PHRleHQgZmlsbD0iIzAwMDAwMCIgZm9udC1mYW1pbHk9InNhbnMtc2VyaWYiIGZvbnQtc2l6ZT0iMTYiIGZvbnQtd2VpZ2h0PSJib2xkIiBsZW5ndGhBZGp1c3Q9InNwYWNpbmciIHRleHRMZW5ndGg9IjE2IiB4PSI1OTkiIHk9IjU0NC45NTMxIj5kZTwvdGV4dD48dGV4dCBmaWxsPSIjMDAwMDAwIiBmb250LWZhbWlseT0ic2Fucy1zZXJpZiIgZm9udC1zaXplPSIxNiIgZm9udC13ZWlnaHQ9ImJvbGQiIGxlbmd0aEFkanVzdD0ic3BhY2luZyIgdGV4dExlbmd0aD0iOCIgeD0iNjE1IiB5PSI1NDQuOTUzMSI+JiMxNjA7PC90ZXh0Pjx0ZXh0IGZpbGw9IiMwMDAwMDAiIGZvbnQtZmFtaWx5PSJzYW5zLXNlcmlmIiBmb250LXNpemU9IjE2IiBmb250LXdlaWdodD0iYm9sZCIgbGVuZ3RoQWRqdXN0PSJzcGFjaW5nIiB0ZXh0TGVuZ3RoPSI4MCIgeD0iNjIzIiB5PSI1NDQuOTUzMSI+Q29taXNpb25lczwvdGV4dD48dGV4dCBmaWxsPSIjMDAwMDAwIiBmb250LWZhbWlseT0ic2Fucy1zZXJpZiIgZm9udC1zaXplPSIxMiIgZm9udC1zdHlsZT0iaXRhbGljIiBsZW5ndGhBZGp1c3Q9InNwYWNpbmciIHRleHRMZW5ndGg9IjQ3IiB4PSI1MjQiIHk9IjU1OC4yOTY5Ij5bU3ByaW5nPC90ZXh0Pjx0ZXh0IGZpbGw9IiMwMDAwMDAiIGZvbnQtZmFtaWx5PSJzYW5zLXNlcmlmIiBmb250LXNpemU9IjEyIiBmb250LXN0eWxlPSJpdGFsaWMiIGxlbmd0aEFkanVzdD0ic3BhY2luZyIgdGV4dExlbmd0aD0iNiIgeD0iNTcxIiB5PSI1NTguMjk2OSI+JiMxNjA7PC90ZXh0Pjx0ZXh0IGZpbGw9IiMwMDAwMDAiIGZvbnQtZmFtaWx5PSJzYW5zLXNlcmlmIiBmb250LXNpemU9IjEyIiBmb250LXN0eWxlPSJpdGFsaWMiIGxlbmd0aEFkanVzdD0ic3BhY2luZyIgdGV4dExlbmd0aD0iMjYiIHg9IjU3NyIgeT0iNTU4LjI5NjkiPlJFU1Q8L3RleHQ+PHRleHQgZmlsbD0iIzAwMDAwMCIgZm9udC1mYW1pbHk9InNhbnMtc2VyaWYiIGZvbnQtc2l6ZT0iMTIiIGZvbnQtc3R5bGU9Iml0YWxpYyIgbGVuZ3RoQWRqdXN0PSJzcGFjaW5nIiB0ZXh0TGVuZ3RoPSI2IiB4PSI2MDMiIHk9IjU1OC4yOTY5Ij4mIzE2MDs8L3RleHQ+PHRleHQgZmlsbD0iIzAwMDAwMCIgZm9udC1mYW1pbHk9InNhbnMtc2VyaWYiIGZvbnQtc2l6ZT0iMTIiIGZvbnQtc3R5bGU9Iml0YWxpYyIgbGVuZ3RoQWRqdXN0PSJzcGFjaW5nIiB0ZXh0TGVuZ3RoPSI3MyIgeD0iNjA5IiB5PSI1NTguMjk2OSI+Q29udHJvbGxlcl08L3RleHQ+PHRleHQgZmlsbD0iIzAwMDAwMCIgZm9udC1mYW1pbHk9InNhbnMtc2VyaWYiIGZvbnQtc2l6ZT0iMTQiIGxlbmd0aEFkanVzdD0ic3BhY2luZyIgdGV4dExlbmd0aD0iNyIgeD0iNTk5LjUiIHk9IjU3My4wMzEzIj4mIzE2MDs8L3RleHQ+PHRleHQgZmlsbD0iIzAwMDAwMCIgZm9udC1mYW1pbHk9InNhbnMtc2VyaWYiIGZvbnQtc2l6ZT0iMTQiIGxlbmd0aEFkanVzdD0ic3BhY2luZyIgdGV4dExlbmd0aD0iNTYiIHg9IjUyMi41IiB5PSI1ODguMDE1NiI+R2VzdGlvbmE8L3RleHQ+PHRleHQgZmlsbD0iIzAwMDAwMCIgZm9udC1mYW1pbHk9InNhbnMtc2VyaWYiIGZvbnQtc2l6ZT0iMTQiIGxlbmd0aEFkanVzdD0ic3BhY2luZyIgdGV4dExlbmd0aD0iNyIgeD0iNTc4LjUiIHk9IjU4OC4wMTU2Ij4mIzE2MDs8L3RleHQ+PHRleHQgZmlsbD0iIzAwMDAwMCIgZm9udC1mYW1pbHk9InNhbnMtc2VyaWYiIGZvbnQtc2l6ZT0iMTQiIGxlbmd0aEFkanVzdD0ic3BhY2luZyIgdGV4dExlbmd0aD0iNjMiIHg9IjU4NS41IiB5PSI1ODguMDE1NiI+ZW5kcG9pbnRzPC90ZXh0Pjx0ZXh0IGZpbGw9IiMwMDAwMDAiIGZvbnQtZmFtaWx5PSJzYW5zLXNlcmlmIiBmb250LXNpemU9IjE0IiBsZW5ndGhBZGp1c3Q9InNwYWNpbmciIHRleHRMZW5ndGg9IjciIHg9IjY0OC41IiB5PSI1ODguMDE1NiI+JiMxNjA7PC90ZXh0Pjx0ZXh0IGZpbGw9IiMwMDAwMDAiIGZvbnQtZmFtaWx5PSJzYW5zLXNlcmlmIiBmb250LXNpemU9IjE0IiBsZW5ndGhBZGp1c3Q9InNwYWNpbmciIHRleHRMZW5ndGg9IjI4IiB4PSI2NTUuNSIgeT0iNTg4LjAxNTYiPnBhcmE8L3RleHQ+PHRleHQgZmlsbD0iIzAwMDAwMCIgZm9udC1mYW1pbHk9InNhbnMtc2VyaWYiIGZvbnQtc2l6ZT0iMTQiIGxlbmd0aEFkanVzdD0ic3BhY2luZyIgdGV4dExlbmd0aD0iOTEiIHg9IjUwOCIgeT0iNjAzIj5jb25maWd1cmFjaSYjMjQzO248L3RleHQ+PHRleHQgZmlsbD0iIzAwMDAwMCIgZm9udC1mYW1pbHk9InNhbnMtc2VyaWYiIGZvbnQtc2l6ZT0iMTQiIGxlbmd0aEFkanVzdD0ic3BhY2luZyIgdGV4dExlbmd0aD0iNyIgeD0iNTk5IiB5PSI2MDMiPiYjMTYwOzwvdGV4dD48dGV4dCBmaWxsPSIjMDAwMDAwIiBmb250LWZhbWlseT0ic2Fucy1zZXJpZiIgZm9udC1zaXplPSIxNCIgbGVuZ3RoQWRqdXN0PSJzcGFjaW5nIiB0ZXh0TGVuZ3RoPSIxNCIgeD0iNjA2IiB5PSI2MDMiPmRlPC90ZXh0Pjx0ZXh0IGZpbGw9IiMwMDAwMDAiIGZvbnQtZmFtaWx5PSJzYW5zLXNlcmlmIiBmb250LXNpemU9IjE0IiBsZW5ndGhBZGp1c3Q9InNwYWNpbmciIHRleHRMZW5ndGg9IjciIHg9IjYyMCIgeT0iNjAzIj4mIzE2MDs8L3RleHQ+PHRleHQgZmlsbD0iIzAwMDAwMCIgZm9udC1mYW1pbHk9InNhbnMtc2VyaWYiIGZvbnQtc2l6ZT0iMTQiIGxlbmd0aEFkanVzdD0ic3BhY2luZyIgdGV4dExlbmd0aD0iNzEiIHg9IjYyNyIgeT0iNjAzIj5jb21pc2lvbmVzPC90ZXh0PjwvZz48IS0tZW50aXR5IGZhY3R1cmFjaW9uQ29udHJvbGxlci0tPjxnIGlkPSJlbGVtX2ZhY3R1cmFjaW9uQ29udHJvbGxlciI+PHJlY3QgZmlsbD0iIzg1QkJGMCIgaGVpZ2h0PSIxMjQuODkwNiIgcng9IjIuNSIgcnk9IjIuNSIgc3R5bGU9InN0cm9rZTojNzhBOEQ4O3N0cm9rZS13aWR0aDowLjU7IiB3aWR0aD0iMTgxIiB4PSI1NTcuNSIgeT0iMTEwLjk4NDQiLz48dGV4dCBmaWxsPSIjMDAwMDAwIiBmb250LWZhbWlseT0ic2Fucy1zZXJpZiIgZm9udC1zaXplPSIxMiIgZm9udC1zdHlsZT0iaXRhbGljIiBsZW5ndGhBZGp1c3Q9InNwYWNpbmciIHRleHRMZW5ndGg9IjcyIiB4PSI2MTIiIHk9IjEzMi4zMjgxIj4mIzE3MTtjb21wb25lbnQmIzE4Nzs8L3RleHQ+PHRleHQgZmlsbD0iIzAwMDAwMCIgZm9udC1mYW1pbHk9InNhbnMtc2VyaWYiIGZvbnQtc2l6ZT0iMTYiIGZvbnQtd2VpZ2h0PSJib2xkIiBsZW5ndGhBZGp1c3Q9InNwYWNpbmciIHRleHRMZW5ndGg9Ijg4IiB4PSI1OTIiIHk9IjE0OC45NTMxIj5Db250cm9sYWRvcjwvdGV4dD48dGV4dCBmaWxsPSIjMDAwMDAwIiBmb250LWZhbWlseT0ic2Fucy1zZXJpZiIgZm9udC1zaXplPSIxNiIgZm9udC13ZWlnaHQ9ImJvbGQiIGxlbmd0aEFkanVzdD0ic3BhY2luZyIgdGV4dExlbmd0aD0iOCIgeD0iNjgwIiB5PSIxNDguOTUzMSI+JiMxNjA7PC90ZXh0Pjx0ZXh0IGZpbGw9IiMwMDAwMDAiIGZvbnQtZmFtaWx5PSJzYW5zLXNlcmlmIiBmb250LXNpemU9IjE2IiBmb250LXdlaWdodD0iYm9sZCIgbGVuZ3RoQWRqdXN0PSJzcGFjaW5nIiB0ZXh0TGVuZ3RoPSIxNiIgeD0iNjg4IiB5PSIxNDguOTUzMSI+ZGU8L3RleHQ+PHRleHQgZmlsbD0iIzAwMDAwMCIgZm9udC1mYW1pbHk9InNhbnMtc2VyaWYiIGZvbnQtc2l6ZT0iMTYiIGZvbnQtd2VpZ2h0PSJib2xkIiBsZW5ndGhBZGp1c3Q9InNwYWNpbmciIHRleHRMZW5ndGg9Ijg4IiB4PSI2MDQiIHk9IjE2Ni4wNzgxIj5GYWN0dXJhY2kmIzI0MztuPC90ZXh0Pjx0ZXh0IGZpbGw9IiMwMDAwMDAiIGZvbnQtZmFtaWx5PSJzYW5zLXNlcmlmIiBmb250LXNpemU9IjEyIiBmb250LXN0eWxlPSJpdGFsaWMiIGxlbmd0aEFkanVzdD0ic3BhY2luZyIgdGV4dExlbmd0aD0iNDciIHg9IjU2OSIgeT0iMTc5LjQyMTkiPltTcHJpbmc8L3RleHQ+PHRleHQgZmlsbD0iIzAwMDAwMCIgZm9udC1mYW1pbHk9InNhbnMtc2VyaWYiIGZvbnQtc2l6ZT0iMTIiIGZvbnQtc3R5bGU9Iml0YWxpYyIgbGVuZ3RoQWRqdXN0PSJzcGFjaW5nIiB0ZXh0TGVuZ3RoPSI2IiB4PSI2MTYiIHk9IjE3OS40MjE5Ij4mIzE2MDs8L3RleHQ+PHRleHQgZmlsbD0iIzAwMDAwMCIgZm9udC1mYW1pbHk9InNhbnMtc2VyaWYiIGZvbnQtc2l6ZT0iMTIiIGZvbnQtc3R5bGU9Iml0YWxpYyIgbGVuZ3RoQWRqdXN0PSJzcGFjaW5nIiB0ZXh0TGVuZ3RoPSIyNiIgeD0iNjIyIiB5PSIxNzkuNDIxOSI+UkVTVDwvdGV4dD48dGV4dCBmaWxsPSIjMDAwMDAwIiBmb250LWZhbWlseT0ic2Fucy1zZXJpZiIgZm9udC1zaXplPSIxMiIgZm9udC1zdHlsZT0iaXRhbGljIiBsZW5ndGhBZGp1c3Q9InNwYWNpbmciIHRleHRMZW5ndGg9IjYiIHg9IjY0OCIgeT0iMTc5LjQyMTkiPiYjMTYwOzwvdGV4dD48dGV4dCBmaWxsPSIjMDAwMDAwIiBmb250LWZhbWlseT0ic2Fucy1zZXJpZiIgZm9udC1zaXplPSIxMiIgZm9udC1zdHlsZT0iaXRhbGljIiBsZW5ndGhBZGp1c3Q9InNwYWNpbmciIHRleHRMZW5ndGg9IjczIiB4PSI2NTQiIHk9IjE3OS40MjE5Ij5Db250cm9sbGVyXTwvdGV4dD48dGV4dCBmaWxsPSIjMDAwMDAwIiBmb250LWZhbWlseT0ic2Fucy1zZXJpZiIgZm9udC1zaXplPSIxNCIgbGVuZ3RoQWRqdXN0PSJzcGFjaW5nIiB0ZXh0TGVuZ3RoPSI3IiB4PSI2NDQuNSIgeT0iMTk0LjE1NjMiPiYjMTYwOzwvdGV4dD48dGV4dCBmaWxsPSIjMDAwMDAwIiBmb250LWZhbWlseT0ic2Fucy1zZXJpZiIgZm9udC1zaXplPSIxNCIgbGVuZ3RoQWRqdXN0PSJzcGFjaW5nIiB0ZXh0TGVuZ3RoPSI1NiIgeD0iNTY3LjUiIHk9IjIwOS4xNDA2Ij5HZXN0aW9uYTwvdGV4dD48dGV4dCBmaWxsPSIjMDAwMDAwIiBmb250LWZhbWlseT0ic2Fucy1zZXJpZiIgZm9udC1zaXplPSIxNCIgbGVuZ3RoQWRqdXN0PSJzcGFjaW5nIiB0ZXh0TGVuZ3RoPSI3IiB4PSI2MjMuNSIgeT0iMjA5LjE0MDYiPiYjMTYwOzwvdGV4dD48dGV4dCBmaWxsPSIjMDAwMDAwIiBmb250LWZhbWlseT0ic2Fucy1zZXJpZiIgZm9udC1zaXplPSIxNCIgbGVuZ3RoQWRqdXN0PSJzcGFjaW5nIiB0ZXh0TGVuZ3RoPSI2MyIgeD0iNjMwLjUiIHk9IjIwOS4xNDA2Ij5lbmRwb2ludHM8L3RleHQ+PHRleHQgZmlsbD0iIzAwMDAwMCIgZm9udC1mYW1pbHk9InNhbnMtc2VyaWYiIGZvbnQtc2l6ZT0iMTQiIGxlbmd0aEFkanVzdD0ic3BhY2luZyIgdGV4dExlbmd0aD0iNyIgeD0iNjkzLjUiIHk9IjIwOS4xNDA2Ij4mIzE2MDs8L3RleHQ+PHRleHQgZmlsbD0iIzAwMDAwMCIgZm9udC1mYW1pbHk9InNhbnMtc2VyaWYiIGZvbnQtc2l6ZT0iMTQiIGxlbmd0aEFkanVzdD0ic3BhY2luZyIgdGV4dExlbmd0aD0iMjgiIHg9IjcwMC41IiB5PSIyMDkuMTQwNiI+cGFyYTwvdGV4dD48dGV4dCBmaWxsPSIjMDAwMDAwIiBmb250LWZhbWlseT0ic2Fucy1zZXJpZiIgZm9udC1zaXplPSIxNCIgbGVuZ3RoQWRqdXN0PSJzcGFjaW5nIiB0ZXh0TGVuZ3RoPSI0OSIgeD0iNTcxIiB5PSIyMjQuMTI1Ij5wcm9jZXNvPC90ZXh0Pjx0ZXh0IGZpbGw9IiMwMDAwMDAiIGZvbnQtZmFtaWx5PSJzYW5zLXNlcmlmIiBmb250LXNpemU9IjE0IiBsZW5ndGhBZGp1c3Q9InNwYWNpbmciIHRleHRMZW5ndGg9IjciIHg9IjYyMCIgeT0iMjI0LjEyNSI+JiMxNjA7PC90ZXh0Pjx0ZXh0IGZpbGw9IiMwMDAwMDAiIGZvbnQtZmFtaWx5PSJzYW5zLXNlcmlmIiBmb250LXNpemU9IjE0IiBsZW5ndGhBZGp1c3Q9InNwYWNpbmciIHRleHRMZW5ndGg9IjE0IiB4PSI2MjciIHk9IjIyNC4xMjUiPmRlPC90ZXh0Pjx0ZXh0IGZpbGw9IiMwMDAwMDAiIGZvbnQtZmFtaWx5PSJzYW5zLXNlcmlmIiBmb250LXNpemU9IjE0IiBsZW5ndGhBZGp1c3Q9InNwYWNpbmciIHRleHRMZW5ndGg9IjciIHg9IjY0MSIgeT0iMjI0LjEyNSI+JiMxNjA7PC90ZXh0Pjx0ZXh0IGZpbGw9IiMwMDAwMDAiIGZvbnQtZmFtaWx5PSJzYW5zLXNlcmlmIiBmb250LXNpemU9IjE0IiBsZW5ndGhBZGp1c3Q9InNwYWNpbmciIHRleHRMZW5ndGg9Ijc3IiB4PSI2NDgiIHk9IjIyNC4xMjUiPmZhY3R1cmFjaSYjMjQzO248L3RleHQ+PC9nPjwhLS1lbnRpdHkgY29taXNpb25TZXJ2aWNlLS0+PGcgaWQ9ImVsZW1fY29taXNpb25TZXJ2aWNlIj48cmVjdCBmaWxsPSIjODVCQkYwIiBoZWlnaHQ9IjEyMi43NSIgcng9IjIuNSIgcnk9IjIuNSIgc3R5bGU9InN0cm9rZTojNzhBOEQ4O3N0cm9rZS13aWR0aDowLjU7IiB3aWR0aD0iMTk2IiB4PSI0NDMiIHk9IjY5MC45ODQ0Ii8+PHRleHQgZmlsbD0iIzAwMDAwMCIgZm9udC1mYW1pbHk9InNhbnMtc2VyaWYiIGZvbnQtc2l6ZT0iMTIiIGZvbnQtc3R5bGU9Iml0YWxpYyIgbGVuZ3RoQWRqdXN0PSJzcGFjaW5nIiB0ZXh0TGVuZ3RoPSI3MiIgeD0iNTA1IiB5PSI3MTIuMzI4MSI+JiMxNzE7Y29tcG9uZW50JiMxODc7PC90ZXh0Pjx0ZXh0IGZpbGw9IiMwMDAwMDAiIGZvbnQtZmFtaWx5PSJzYW5zLXNlcmlmIiBmb250LXNpemU9IjE2IiBmb250LXdlaWdodD0iYm9sZCIgbGVuZ3RoQWRqdXN0PSJzcGFjaW5nIiB0ZXh0TGVuZ3RoPSI2NCIgeD0iNDUzIiB5PSI3MjguOTUzMSI+U2VydmljaW88L3RleHQ+PHRleHQgZmlsbD0iIzAwMDAwMCIgZm9udC1mYW1pbHk9InNhbnMtc2VyaWYiIGZvbnQtc2l6ZT0iMTYiIGZvbnQtd2VpZ2h0PSJib2xkIiBsZW5ndGhBZGp1c3Q9InNwYWNpbmciIHRleHRMZW5ndGg9IjgiIHg9IjUxNyIgeT0iNzI4Ljk1MzEiPiYjMTYwOzwvdGV4dD48dGV4dCBmaWxsPSIjMDAwMDAwIiBmb250LWZhbWlseT0ic2Fucy1zZXJpZiIgZm9udC1zaXplPSIxNiIgZm9udC13ZWlnaHQ9ImJvbGQiIGxlbmd0aEFkanVzdD0ic3BhY2luZyIgdGV4dExlbmd0aD0iMTYiIHg9IjUyNSIgeT0iNzI4Ljk1MzEiPmRlPC90ZXh0Pjx0ZXh0IGZpbGw9IiMwMDAwMDAiIGZvbnQtZmFtaWx5PSJzYW5zLXNlcmlmIiBmb250LXNpemU9IjE2IiBmb250LXdlaWdodD0iYm9sZCIgbGVuZ3RoQWRqdXN0PSJzcGFjaW5nIiB0ZXh0TGVuZ3RoPSI4IiB4PSI1NDEiIHk9IjcyOC45NTMxIj4mIzE2MDs8L3RleHQ+PHRleHQgZmlsbD0iIzAwMDAwMCIgZm9udC1mYW1pbHk9InNhbnMtc2VyaWYiIGZvbnQtc2l6ZT0iMTYiIGZvbnQtd2VpZ2h0PSJib2xkIiBsZW5ndGhBZGp1c3Q9InNwYWNpbmciIHRleHRMZW5ndGg9IjgwIiB4PSI1NDkiIHk9IjcyOC45NTMxIj5Db21pc2lvbmVzPC90ZXh0Pjx0ZXh0IGZpbGw9IiMwMDAwMDAiIGZvbnQtZmFtaWx5PSJzYW5zLXNlcmlmIiBmb250LXNpemU9IjEyIiBmb250LXN0eWxlPSJpdGFsaWMiIGxlbmd0aEFkanVzdD0ic3BhY2luZyIgdGV4dExlbmd0aD0iNDciIHg9IjQ4OCIgeT0iNzQyLjI5NjkiPltTcHJpbmc8L3RleHQ+PHRleHQgZmlsbD0iIzAwMDAwMCIgZm9udC1mYW1pbHk9InNhbnMtc2VyaWYiIGZvbnQtc2l6ZT0iMTIiIGZvbnQtc3R5bGU9Iml0YWxpYyIgbGVuZ3RoQWRqdXN0PSJzcGFjaW5nIiB0ZXh0TGVuZ3RoPSI2IiB4PSI1MzUiIHk9Ijc0Mi4yOTY5Ij4mIzE2MDs8L3RleHQ+PHRleHQgZmlsbD0iIzAwMDAwMCIgZm9udC1mYW1pbHk9InNhbnMtc2VyaWYiIGZvbnQtc2l6ZT0iMTIiIGZvbnQtc3R5bGU9Iml0YWxpYyIgbGVuZ3RoQWRqdXN0PSJzcGFjaW5nIiB0ZXh0TGVuZ3RoPSI1MyIgeD0iNTQxIiB5PSI3NDIuMjk2OSI+U2VydmljZV08L3RleHQ+PHRleHQgZmlsbD0iIzAwMDAwMCIgZm9udC1mYW1pbHk9InNhbnMtc2VyaWYiIGZvbnQtc2l6ZT0iMTQiIGxlbmd0aEFkanVzdD0ic3BhY2luZyIgdGV4dExlbmd0aD0iNyIgeD0iNTM3LjUiIHk9Ijc1Ny4wMzEzIj4mIzE2MDs8L3RleHQ+PHRleHQgZmlsbD0iIzAwMDAwMCIgZm9udC1mYW1pbHk9InNhbnMtc2VyaWYiIGZvbnQtc2l6ZT0iMTQiIGxlbmd0aEFkanVzdD0ic3BhY2luZyIgdGV4dExlbmd0aD0iNDIiIHg9IjQ2NCIgeT0iNzcyLjAxNTYiPkwmIzI0MztnaWNhPC90ZXh0Pjx0ZXh0IGZpbGw9IiMwMDAwMDAiIGZvbnQtZmFtaWx5PSJzYW5zLXNlcmlmIiBmb250LXNpemU9IjE0IiBsZW5ndGhBZGp1c3Q9InNwYWNpbmciIHRleHRMZW5ndGg9IjciIHg9IjUwNiIgeT0iNzcyLjAxNTYiPiYjMTYwOzwvdGV4dD48dGV4dCBmaWxsPSIjMDAwMDAwIiBmb250LWZhbWlseT0ic2Fucy1zZXJpZiIgZm9udC1zaXplPSIxNCIgbGVuZ3RoQWRqdXN0PSJzcGFjaW5nIiB0ZXh0TGVuZ3RoPSIxNCIgeD0iNTEzIiB5PSI3NzIuMDE1NiI+ZGU8L3RleHQ+PHRleHQgZmlsbD0iIzAwMDAwMCIgZm9udC1mYW1pbHk9InNhbnMtc2VyaWYiIGZvbnQtc2l6ZT0iMTQiIGxlbmd0aEFkanVzdD0ic3BhY2luZyIgdGV4dExlbmd0aD0iNyIgeD0iNTI3IiB5PSI3NzIuMDE1NiI+JiMxNjA7PC90ZXh0Pjx0ZXh0IGZpbGw9IiMwMDAwMDAiIGZvbnQtZmFtaWx5PSJzYW5zLXNlcmlmIiBmb250LXNpemU9IjE0IiBsZW5ndGhBZGp1c3Q9InNwYWNpbmciIHRleHRMZW5ndGg9IjQ5IiB4PSI1MzQiIHk9Ijc3Mi4wMTU2Ij5uZWdvY2lvPC90ZXh0Pjx0ZXh0IGZpbGw9IiMwMDAwMDAiIGZvbnQtZmFtaWx5PSJzYW5zLXNlcmlmIiBmb250LXNpemU9IjE0IiBsZW5ndGhBZGp1c3Q9InNwYWNpbmciIHRleHRMZW5ndGg9IjciIHg9IjU4MyIgeT0iNzcyLjAxNTYiPiYjMTYwOzwvdGV4dD48dGV4dCBmaWxsPSIjMDAwMDAwIiBmb250LWZhbWlseT0ic2Fucy1zZXJpZiIgZm9udC1zaXplPSIxNCIgbGVuZ3RoQWRqdXN0PSJzcGFjaW5nIiB0ZXh0TGVuZ3RoPSIyOCIgeD0iNTkwIiB5PSI3NzIuMDE1NiI+cGFyYTwvdGV4dD48dGV4dCBmaWxsPSIjMDAwMDAwIiBmb250LWZhbWlseT0ic2Fucy1zZXJpZiIgZm9udC1zaXplPSIxNCIgbGVuZ3RoQWRqdXN0PSJzcGFjaW5nIiB0ZXh0TGVuZ3RoPSI0OSIgeD0iNDcxIiB5PSI3ODciPmMmIzIyNTtsY3VsbzwvdGV4dD48dGV4dCBmaWxsPSIjMDAwMDAwIiBmb250LWZhbWlseT0ic2Fucy1zZXJpZiIgZm9udC1zaXplPSIxNCIgbGVuZ3RoQWRqdXN0PSJzcGFjaW5nIiB0ZXh0TGVuZ3RoPSI3IiB4PSI1MjAiIHk9Ijc4NyI+JiMxNjA7PC90ZXh0Pjx0ZXh0IGZpbGw9IiMwMDAwMDAiIGZvbnQtZmFtaWx5PSJzYW5zLXNlcmlmIiBmb250LXNpemU9IjE0IiBsZW5ndGhBZGp1c3Q9InNwYWNpbmciIHRleHRMZW5ndGg9IjciIHg9IjUyNyIgeT0iNzg3Ij55PC90ZXh0Pjx0ZXh0IGZpbGw9IiMwMDAwMDAiIGZvbnQtZmFtaWx5PSJzYW5zLXNlcmlmIiBmb250LXNpemU9IjE0IiBsZW5ndGhBZGp1c3Q9InNwYWNpbmciIHRleHRMZW5ndGg9IjciIHg9IjUzNCIgeT0iNzg3Ij4mIzE2MDs8L3RleHQ+PHRleHQgZmlsbD0iIzAwMDAwMCIgZm9udC1mYW1pbHk9InNhbnMtc2VyaWYiIGZvbnQtc2l6ZT0iMTQiIGxlbmd0aEFkanVzdD0ic3BhY2luZyIgdGV4dExlbmd0aD0iNDkiIHg9IjU0MSIgeT0iNzg3Ij5nZXN0aSYjMjQzO248L3RleHQ+PHRleHQgZmlsbD0iIzAwMDAwMCIgZm9udC1mYW1pbHk9InNhbnMtc2VyaWYiIGZvbnQtc2l6ZT0iMTQiIGxlbmd0aEFkanVzdD0ic3BhY2luZyIgdGV4dExlbmd0aD0iNyIgeD0iNTkwIiB5PSI3ODciPiYjMTYwOzwvdGV4dD48dGV4dCBmaWxsPSIjMDAwMDAwIiBmb250LWZhbWlseT0ic2Fucy1zZXJpZiIgZm9udC1zaXplPSIxNCIgbGVuZ3RoQWRqdXN0PSJzcGFjaW5nIiB0ZXh0TGVuZ3RoPSIxNCIgeD0iNTk3IiB5PSI3ODciPmRlPC90ZXh0Pjx0ZXh0IGZpbGw9IiMwMDAwMDAiIGZvbnQtZmFtaWx5PSJzYW5zLXNlcmlmIiBmb250LXNpemU9IjE0IiBsZW5ndGhBZGp1c3Q9InNwYWNpbmciIHRleHRMZW5ndGg9IjcxIiB4PSI1MDUuNSIgeT0iODAxLjk4NDQiPmNvbWlzaW9uZXM8L3RleHQ+PC9nPjwhLS1lbnRpdHkgZmFjdHVyYWNpb25TZXJ2aWNlLS0+PGcgaWQ9ImVsZW1fZmFjdHVyYWNpb25TZXJ2aWNlIj48cmVjdCBmaWxsPSIjODVCQkYwIiBoZWlnaHQ9IjEwNy43NjU2IiByeD0iMi41IiByeT0iMi41IiBzdHlsZT0ic3Ryb2tlOiM3OEE4RDg7c3Ryb2tlLXdpZHRoOjAuNTsiIHdpZHRoPSIyMDQiIHg9IjU0NiIgeT0iMzA5Ljk4NDQiLz48dGV4dCBmaWxsPSIjMDAwMDAwIiBmb250LWZhbWlseT0ic2Fucy1zZXJpZiIgZm9udC1zaXplPSIxMiIgZm9udC1zdHlsZT0iaXRhbGljIiBsZW5ndGhBZGp1c3Q9InNwYWNpbmciIHRleHRMZW5ndGg9IjcyIiB4PSI2MTIiIHk9IjMzMS4zMjgxIj4mIzE3MTtjb21wb25lbnQmIzE4Nzs8L3RleHQ+PHRleHQgZmlsbD0iIzAwMDAwMCIgZm9udC1mYW1pbHk9InNhbnMtc2VyaWYiIGZvbnQtc2l6ZT0iMTYiIGZvbnQtd2VpZ2h0PSJib2xkIiBsZW5ndGhBZGp1c3Q9InNwYWNpbmciIHRleHRMZW5ndGg9IjY0IiB4PSI1NTYiIHk9IjM0Ny45NTMxIj5TZXJ2aWNpbzwvdGV4dD48dGV4dCBmaWxsPSIjMDAwMDAwIiBmb250LWZhbWlseT0ic2Fucy1zZXJpZiIgZm9udC1zaXplPSIxNiIgZm9udC13ZWlnaHQ9ImJvbGQiIGxlbmd0aEFkanVzdD0ic3BhY2luZyIgdGV4dExlbmd0aD0iOCIgeD0iNjIwIiB5PSIzNDcuOTUzMSI+JiMxNjA7PC90ZXh0Pjx0ZXh0IGZpbGw9IiMwMDAwMDAiIGZvbnQtZmFtaWx5PSJzYW5zLXNlcmlmIiBmb250LXNpemU9IjE2IiBmb250LXdlaWdodD0iYm9sZCIgbGVuZ3RoQWRqdXN0PSJzcGFjaW5nIiB0ZXh0TGVuZ3RoPSIxNiIgeD0iNjI4IiB5PSIzNDcuOTUzMSI+ZGU8L3RleHQ+PHRleHQgZmlsbD0iIzAwMDAwMCIgZm9udC1mYW1pbHk9InNhbnMtc2VyaWYiIGZvbnQtc2l6ZT0iMTYiIGZvbnQtd2VpZ2h0PSJib2xkIiBsZW5ndGhBZGp1c3Q9InNwYWNpbmciIHRleHRMZW5ndGg9IjgiIHg9IjY0NCIgeT0iMzQ3Ljk1MzEiPiYjMTYwOzwvdGV4dD48dGV4dCBmaWxsPSIjMDAwMDAwIiBmb250LWZhbWlseT0ic2Fucy1zZXJpZiIgZm9udC1zaXplPSIxNiIgZm9udC13ZWlnaHQ9ImJvbGQiIGxlbmd0aEFkanVzdD0ic3BhY2luZyIgdGV4dExlbmd0aD0iODgiIHg9IjY1MiIgeT0iMzQ3Ljk1MzEiPkZhY3R1cmFjaSYjMjQzO248L3RleHQ+PHRleHQgZmlsbD0iIzAwMDAwMCIgZm9udC1mYW1pbHk9InNhbnMtc2VyaWYiIGZvbnQtc2l6ZT0iMTIiIGZvbnQtc3R5bGU9Iml0YWxpYyIgbGVuZ3RoQWRqdXN0PSJzcGFjaW5nIiB0ZXh0TGVuZ3RoPSI0NyIgeD0iNTk1IiB5PSIzNjEuMjk2OSI+W1NwcmluZzwvdGV4dD48dGV4dCBmaWxsPSIjMDAwMDAwIiBmb250LWZhbWlseT0ic2Fucy1zZXJpZiIgZm9udC1zaXplPSIxMiIgZm9udC1zdHlsZT0iaXRhbGljIiBsZW5ndGhBZGp1c3Q9InNwYWNpbmciIHRleHRMZW5ndGg9IjYiIHg9IjY0MiIgeT0iMzYxLjI5NjkiPiYjMTYwOzwvdGV4dD48dGV4dCBmaWxsPSIjMDAwMDAwIiBmb250LWZhbWlseT0ic2Fucy1zZXJpZiIgZm9udC1zaXplPSIxMiIgZm9udC1zdHlsZT0iaXRhbGljIiBsZW5ndGhBZGp1c3Q9InNwYWNpbmciIHRleHRMZW5ndGg9IjUzIiB4PSI2NDgiIHk9IjM2MS4yOTY5Ij5TZXJ2aWNlXTwvdGV4dD48dGV4dCBmaWxsPSIjMDAwMDAwIiBmb250LWZhbWlseT0ic2Fucy1zZXJpZiIgZm9udC1zaXplPSIxNCIgbGVuZ3RoQWRqdXN0PSJzcGFjaW5nIiB0ZXh0TGVuZ3RoPSI3IiB4PSI2NDQuNSIgeT0iMzc2LjAzMTMiPiYjMTYwOzwvdGV4dD48dGV4dCBmaWxsPSIjMDAwMDAwIiBmb250LWZhbWlseT0ic2Fucy1zZXJpZiIgZm9udC1zaXplPSIxNCIgbGVuZ3RoQWRqdXN0PSJzcGFjaW5nIiB0ZXh0TGVuZ3RoPSI0MiIgeD0iNTcxIiB5PSIzOTEuMDE1NiI+TCYjMjQzO2dpY2E8L3RleHQ+PHRleHQgZmlsbD0iIzAwMDAwMCIgZm9udC1mYW1pbHk9InNhbnMtc2VyaWYiIGZvbnQtc2l6ZT0iMTQiIGxlbmd0aEFkanVzdD0ic3BhY2luZyIgdGV4dExlbmd0aD0iNyIgeD0iNjEzIiB5PSIzOTEuMDE1NiI+JiMxNjA7PC90ZXh0Pjx0ZXh0IGZpbGw9IiMwMDAwMDAiIGZvbnQtZmFtaWx5PSJzYW5zLXNlcmlmIiBmb250LXNpemU9IjE0IiBsZW5ndGhBZGp1c3Q9InNwYWNpbmciIHRleHRMZW5ndGg9IjE0IiB4PSI2MjAiIHk9IjM5MS4wMTU2Ij5kZTwvdGV4dD48dGV4dCBmaWxsPSIjMDAwMDAwIiBmb250LWZhbWlseT0ic2Fucy1zZXJpZiIgZm9udC1zaXplPSIxNCIgbGVuZ3RoQWRqdXN0PSJzcGFjaW5nIiB0ZXh0TGVuZ3RoPSI3IiB4PSI2MzQiIHk9IjM5MS4wMTU2Ij4mIzE2MDs8L3RleHQ+PHRleHQgZmlsbD0iIzAwMDAwMCIgZm9udC1mYW1pbHk9InNhbnMtc2VyaWYiIGZvbnQtc2l6ZT0iMTQiIGxlbmd0aEFkanVzdD0ic3BhY2luZyIgdGV4dExlbmd0aD0iNDkiIHg9IjY0MSIgeT0iMzkxLjAxNTYiPm5lZ29jaW88L3RleHQ+PHRleHQgZmlsbD0iIzAwMDAwMCIgZm9udC1mYW1pbHk9InNhbnMtc2VyaWYiIGZvbnQtc2l6ZT0iMTQiIGxlbmd0aEFkanVzdD0ic3BhY2luZyIgdGV4dExlbmd0aD0iNyIgeD0iNjkwIiB5PSIzOTEuMDE1NiI+JiMxNjA7PC90ZXh0Pjx0ZXh0IGZpbGw9IiMwMDAwMDAiIGZvbnQtZmFtaWx5PSJzYW5zLXNlcmlmIiBmb250LXNpemU9IjE0IiBsZW5ndGhBZGp1c3Q9InNwYWNpbmciIHRleHRMZW5ndGg9IjI4IiB4PSI2OTciIHk9IjM5MS4wMTU2Ij5wYXJhPC90ZXh0Pjx0ZXh0IGZpbGw9IiMwMDAwMDAiIGZvbnQtZmFtaWx5PSJzYW5zLXNlcmlmIiBmb250LXNpemU9IjE0IiBsZW5ndGhBZGp1c3Q9InNwYWNpbmciIHRleHRMZW5ndGg9IjQ5IiB4PSI1NzEiIHk9IjQwNiI+cHJvY2VzbzwvdGV4dD48dGV4dCBmaWxsPSIjMDAwMDAwIiBmb250LWZhbWlseT0ic2Fucy1zZXJpZiIgZm9udC1zaXplPSIxNCIgbGVuZ3RoQWRqdXN0PSJzcGFjaW5nIiB0ZXh0TGVuZ3RoPSI3IiB4PSI2MjAiIHk9IjQwNiI+JiMxNjA7PC90ZXh0Pjx0ZXh0IGZpbGw9IiMwMDAwMDAiIGZvbnQtZmFtaWx5PSJzYW5zLXNlcmlmIiBmb250LXNpemU9IjE0IiBsZW5ndGhBZGp1c3Q9InNwYWNpbmciIHRleHRMZW5ndGg9IjE0IiB4PSI2MjciIHk9IjQwNiI+ZGU8L3RleHQ+PHRleHQgZmlsbD0iIzAwMDAwMCIgZm9udC1mYW1pbHk9InNhbnMtc2VyaWYiIGZvbnQtc2l6ZT0iMTQiIGxlbmd0aEFkanVzdD0ic3BhY2luZyIgdGV4dExlbmd0aD0iNyIgeD0iNjQxIiB5PSI0MDYiPiYjMTYwOzwvdGV4dD48dGV4dCBmaWxsPSIjMDAwMDAwIiBmb250LWZhbWlseT0ic2Fucy1zZXJpZiIgZm9udC1zaXplPSIxNCIgbGVuZ3RoQWRqdXN0PSJzcGFjaW5nIiB0ZXh0TGVuZ3RoPSI3NyIgeD0iNjQ4IiB5PSI0MDYiPmZhY3R1cmFjaSYjMjQzO248L3RleHQ+PC9nPjwhLS1lbnRpdHkgY2FsY3VsYWRvckNvbWlzaW9uZXMtLT48ZyBpZD0iZWxlbV9jYWxjdWxhZG9yQ29taXNpb25lcyI+PHJlY3QgZmlsbD0iIzg1QkJGMCIgaGVpZ2h0PSIxMDcuNzY1NiIgcng9IjIuNSIgcnk9IjIuNSIgc3R5bGU9InN0cm9rZTojNzhBOEQ4O3N0cm9rZS13aWR0aDowLjU7IiB3aWR0aD0iMjEyIiB4PSIyMyIgeT0iNTA2Ljk4NDQiLz48dGV4dCBmaWxsPSIjMDAwMDAwIiBmb250LWZhbWlseT0ic2Fucy1zZXJpZiIgZm9udC1zaXplPSIxMiIgZm9udC1zdHlsZT0iaXRhbGljIiBsZW5ndGhBZGp1c3Q9InNwYWNpbmciIHRleHRMZW5ndGg9IjcyIiB4PSI5MyIgeT0iNTI4LjMyODEiPiYjMTcxO2NvbXBvbmVudCYjMTg3OzwvdGV4dD48dGV4dCBmaWxsPSIjMDAwMDAwIiBmb250LWZhbWlseT0ic2Fucy1zZXJpZiIgZm9udC1zaXplPSIxNiIgZm9udC13ZWlnaHQ9ImJvbGQiIGxlbmd0aEFkanVzdD0ic3BhY2luZyIgdGV4dExlbmd0aD0iODAiIHg9IjMzIiB5PSI1NDQuOTUzMSI+Q2FsY3VsYWRvcjwvdGV4dD48dGV4dCBmaWxsPSIjMDAwMDAwIiBmb250LWZhbWlseT0ic2Fucy1zZXJpZiIgZm9udC1zaXplPSIxNiIgZm9udC13ZWlnaHQ9ImJvbGQiIGxlbmd0aEFkanVzdD0ic3BhY2luZyIgdGV4dExlbmd0aD0iOCIgeD0iMTEzIiB5PSI1NDQuOTUzMSI+JiMxNjA7PC90ZXh0Pjx0ZXh0IGZpbGw9IiMwMDAwMDAiIGZvbnQtZmFtaWx5PSJzYW5zLXNlcmlmIiBmb250LXNpemU9IjE2IiBmb250LXdlaWdodD0iYm9sZCIgbGVuZ3RoQWRqdXN0PSJzcGFjaW5nIiB0ZXh0TGVuZ3RoPSIxNiIgeD0iMTIxIiB5PSI1NDQuOTUzMSI+ZGU8L3RleHQ+PHRleHQgZmlsbD0iIzAwMDAwMCIgZm9udC1mYW1pbHk9InNhbnMtc2VyaWYiIGZvbnQtc2l6ZT0iMTYiIGZvbnQtd2VpZ2h0PSJib2xkIiBsZW5ndGhBZGp1c3Q9InNwYWNpbmciIHRleHRMZW5ndGg9IjgiIHg9IjEzNyIgeT0iNTQ0Ljk1MzEiPiYjMTYwOzwvdGV4dD48dGV4dCBmaWxsPSIjMDAwMDAwIiBmb250LWZhbWlseT0ic2Fucy1zZXJpZiIgZm9udC1zaXplPSIxNiIgZm9udC13ZWlnaHQ9ImJvbGQiIGxlbmd0aEFkanVzdD0ic3BhY2luZyIgdGV4dExlbmd0aD0iODAiIHg9IjE0NSIgeT0iNTQ0Ljk1MzEiPkNvbWlzaW9uZXM8L3RleHQ+PHRleHQgZmlsbD0iIzAwMDAwMCIgZm9udC1mYW1pbHk9InNhbnMtc2VyaWYiIGZvbnQtc2l6ZT0iMTIiIGZvbnQtc3R5bGU9Iml0YWxpYyIgbGVuZ3RoQWRqdXN0PSJzcGFjaW5nIiB0ZXh0TGVuZ3RoPSI3MyIgeD0iOTIuNSIgeT0iNTU4LjI5NjkiPltDb21wb25lbnRdPC90ZXh0Pjx0ZXh0IGZpbGw9IiMwMDAwMDAiIGZvbnQtZmFtaWx5PSJzYW5zLXNlcmlmIiBmb250LXNpemU9IjE0IiBsZW5ndGhBZGp1c3Q9InNwYWNpbmciIHRleHRMZW5ndGg9IjciIHg9IjEyNS41IiB5PSI1NzMuMDMxMyI+JiMxNjA7PC90ZXh0Pjx0ZXh0IGZpbGw9IiMwMDAwMDAiIGZvbnQtZmFtaWx5PSJzYW5zLXNlcmlmIiBmb250LXNpemU9IjE0IiBsZW5ndGhBZGp1c3Q9InNwYWNpbmciIHRleHRMZW5ndGg9IjQ5IiB4PSI0NC41IiB5PSI1ODguMDE1NiI+Q2FsY3VsYTwvdGV4dD48dGV4dCBmaWxsPSIjMDAwMDAwIiBmb250LWZhbWlseT0ic2Fucy1zZXJpZiIgZm9udC1zaXplPSIxNCIgbGVuZ3RoQWRqdXN0PSJzcGFjaW5nIiB0ZXh0TGVuZ3RoPSI3IiB4PSI5My41IiB5PSI1ODguMDE1NiI+JiMxNjA7PC90ZXh0Pjx0ZXh0IGZpbGw9IiMwMDAwMDAiIGZvbnQtZmFtaWx5PSJzYW5zLXNlcmlmIiBmb250LXNpemU9IjE0IiBsZW5ndGhBZGp1c3Q9InNwYWNpbmciIHRleHRMZW5ndGg9IjcxIiB4PSIxMDAuNSIgeT0iNTg4LjAxNTYiPmNvbWlzaW9uZXM8L3RleHQ+PHRleHQgZmlsbD0iIzAwMDAwMCIgZm9udC1mYW1pbHk9InNhbnMtc2VyaWYiIGZvbnQtc2l6ZT0iMTQiIGxlbmd0aEFkanVzdD0ic3BhY2luZyIgdGV4dExlbmd0aD0iNyIgeD0iMTcxLjUiIHk9IjU4OC4wMTU2Ij4mIzE2MDs8L3RleHQ+PHRleHQgZmlsbD0iIzAwMDAwMCIgZm9udC1mYW1pbHk9InNhbnMtc2VyaWYiIGZvbnQtc2l6ZT0iMTQiIGxlbmd0aEFkanVzdD0ic3BhY2luZyIgdGV4dExlbmd0aD0iMzUiIHg9IjE3OC41IiB5PSI1ODguMDE1NiI+c2VnJiMyNTA7bjwvdGV4dD48dGV4dCBmaWxsPSIjMDAwMDAwIiBmb250LWZhbWlseT0ic2Fucy1zZXJpZiIgZm9udC1zaXplPSIxNCIgbGVuZ3RoQWRqdXN0PSJzcGFjaW5nIiB0ZXh0TGVuZ3RoPSI0MiIgeD0iNjkuNSIgeT0iNjAzIj5yZWdsYXM8L3RleHQ+PHRleHQgZmlsbD0iIzAwMDAwMCIgZm9udC1mYW1pbHk9InNhbnMtc2VyaWYiIGZvbnQtc2l6ZT0iMTQiIGxlbmd0aEFkanVzdD0ic3BhY2luZyIgdGV4dExlbmd0aD0iNyIgeD0iMTExLjUiIHk9IjYwMyI+JiMxNjA7PC90ZXh0Pjx0ZXh0IGZpbGw9IiMwMDAwMDAiIGZvbnQtZmFtaWx5PSJzYW5zLXNlcmlmIiBmb250LXNpemU9IjE0IiBsZW5ndGhBZGp1c3Q9InNwYWNpbmciIHRleHRMZW5ndGg9IjE0IiB4PSIxMTguNSIgeT0iNjAzIj5kZTwvdGV4dD48dGV4dCBmaWxsPSIjMDAwMDAwIiBmb250LWZhbWlseT0ic2Fucy1zZXJpZiIgZm9udC1zaXplPSIxNCIgbGVuZ3RoQWRqdXN0PSJzcGFjaW5nIiB0ZXh0TGVuZ3RoPSI3IiB4PSIxMzIuNSIgeT0iNjAzIj4mIzE2MDs8L3RleHQ+PHRleHQgZmlsbD0iIzAwMDAwMCIgZm9udC1mYW1pbHk9InNhbnMtc2VyaWYiIGZvbnQtc2l6ZT0iMTQiIGxlbmd0aEFkanVzdD0ic3BhY2luZyIgdGV4dExlbmd0aD0iNDkiIHg9IjEzOS41IiB5PSI2MDMiPm5lZ29jaW88L3RleHQ+PC9nPjwhLS1lbnRpdHkgZ2VuZXJhZG9yRmFjdHVyYXMtLT48ZyBpZD0iZWxlbV9nZW5lcmFkb3JGYWN0dXJhcyI+PHJlY3QgZmlsbD0iIzg1QkJGMCIgaGVpZ2h0PSIxMDcuNzY1NiIgcng9IjIuNSIgcnk9IjIuNSIgc3R5bGU9InN0cm9rZTojNzhBOEQ4O3N0cm9rZS13aWR0aDowLjU7IiB3aWR0aD0iMTg4IiB4PSIyNzAiIHk9IjUwNi45ODQ0Ii8+PHRleHQgZmlsbD0iIzAwMDAwMCIgZm9udC1mYW1pbHk9InNhbnMtc2VyaWYiIGZvbnQtc2l6ZT0iMTIiIGZvbnQtc3R5bGU9Iml0YWxpYyIgbGVuZ3RoQWRqdXN0PSJzcGFjaW5nIiB0ZXh0TGVuZ3RoPSI3MiIgeD0iMzI4IiB5PSI1MjguMzI4MSI+JiMxNzE7Y29tcG9uZW50JiMxODc7PC90ZXh0Pjx0ZXh0IGZpbGw9IiMwMDAwMDAiIGZvbnQtZmFtaWx5PSJzYW5zLXNlcmlmIiBmb250LXNpemU9IjE2IiBmb250LXdlaWdodD0iYm9sZCIgbGVuZ3RoQWRqdXN0PSJzcGFjaW5nIiB0ZXh0TGVuZ3RoPSI3MiIgeD0iMjgwIiB5PSI1NDQuOTUzMSI+R2VuZXJhZG9yPC90ZXh0Pjx0ZXh0IGZpbGw9IiMwMDAwMDAiIGZvbnQtZmFtaWx5PSJzYW5zLXNlcmlmIiBmb250LXNpemU9IjE2IiBmb250LXdlaWdodD0iYm9sZCIgbGVuZ3RoQWRqdXN0PSJzcGFjaW5nIiB0ZXh0TGVuZ3RoPSI4IiB4PSIzNTIiIHk9IjU0NC45NTMxIj4mIzE2MDs8L3RleHQ+PHRleHQgZmlsbD0iIzAwMDAwMCIgZm9udC1mYW1pbHk9InNhbnMtc2VyaWYiIGZvbnQtc2l6ZT0iMTYiIGZvbnQtd2VpZ2h0PSJib2xkIiBsZW5ndGhBZGp1c3Q9InNwYWNpbmciIHRleHRMZW5ndGg9IjE2IiB4PSIzNjAiIHk9IjU0NC45NTMxIj5kZTwvdGV4dD48dGV4dCBmaWxsPSIjMDAwMDAwIiBmb250LWZhbWlseT0ic2Fucy1zZXJpZiIgZm9udC1zaXplPSIxNiIgZm9udC13ZWlnaHQ9ImJvbGQiIGxlbmd0aEFkanVzdD0ic3BhY2luZyIgdGV4dExlbmd0aD0iOCIgeD0iMzc2IiB5PSI1NDQuOTUzMSI+JiMxNjA7PC90ZXh0Pjx0ZXh0IGZpbGw9IiMwMDAwMDAiIGZvbnQtZmFtaWx5PSJzYW5zLXNlcmlmIiBmb250LXNpemU9IjE2IiBmb250LXdlaWdodD0iYm9sZCIgbGVuZ3RoQWRqdXN0PSJzcGFjaW5nIiB0ZXh0TGVuZ3RoPSI2NCIgeD0iMzg0IiB5PSI1NDQuOTUzMSI+RmFjdHVyYXM8L3RleHQ+PHRleHQgZmlsbD0iIzAwMDAwMCIgZm9udC1mYW1pbHk9InNhbnMtc2VyaWYiIGZvbnQtc2l6ZT0iMTIiIGZvbnQtc3R5bGU9Iml0YWxpYyIgbGVuZ3RoQWRqdXN0PSJzcGFjaW5nIiB0ZXh0TGVuZ3RoPSI3MyIgeD0iMzI3LjUiIHk9IjU1OC4yOTY5Ij5bQ29tcG9uZW50XTwvdGV4dD48dGV4dCBmaWxsPSIjMDAwMDAwIiBmb250LWZhbWlseT0ic2Fucy1zZXJpZiIgZm9udC1zaXplPSIxNCIgbGVuZ3RoQWRqdXN0PSJzcGFjaW5nIiB0ZXh0TGVuZ3RoPSI3IiB4PSIzNjAuNSIgeT0iNTczLjAzMTMiPiYjMTYwOzwvdGV4dD48dGV4dCBmaWxsPSIjMDAwMDAwIiBmb250LWZhbWlseT0ic2Fucy1zZXJpZiIgZm9udC1zaXplPSIxNCIgbGVuZ3RoQWRqdXN0PSJzcGFjaW5nIiB0ZXh0TGVuZ3RoPSI0MiIgeD0iMjkzLjUiIHk9IjU4OC4wMTU2Ij5HZW5lcmE8L3RleHQ+PHRleHQgZmlsbD0iIzAwMDAwMCIgZm9udC1mYW1pbHk9InNhbnMtc2VyaWYiIGZvbnQtc2l6ZT0iMTQiIGxlbmd0aEFkanVzdD0ic3BhY2luZyIgdGV4dExlbmd0aD0iNyIgeD0iMzM1LjUiIHk9IjU4OC4wMTU2Ij4mIzE2MDs8L3RleHQ+PHRleHQgZmlsbD0iIzAwMDAwMCIgZm9udC1mYW1pbHk9InNhbnMtc2VyaWYiIGZvbnQtc2l6ZT0iMTQiIGxlbmd0aEFkanVzdD0ic3BhY2luZyIgdGV4dExlbmd0aD0iNzEiIHg9IjM0Mi41IiB5PSI1ODguMDE1NiI+ZG9jdW1lbnRvczwvdGV4dD48dGV4dCBmaWxsPSIjMDAwMDAwIiBmb250LWZhbWlseT0ic2Fucy1zZXJpZiIgZm9udC1zaXplPSIxNCIgbGVuZ3RoQWRqdXN0PSJzcGFjaW5nIiB0ZXh0TGVuZ3RoPSI3IiB4PSI0MTMuNSIgeT0iNTg4LjAxNTYiPiYjMTYwOzwvdGV4dD48dGV4dCBmaWxsPSIjMDAwMDAwIiBmb250LWZhbWlseT0ic2Fucy1zZXJpZiIgZm9udC1zaXplPSIxNCIgbGVuZ3RoQWRqdXN0PSJzcGFjaW5nIiB0ZXh0TGVuZ3RoPSIxNCIgeD0iNDIwLjUiIHk9IjU4OC4wMTU2Ij5kZTwvdGV4dD48dGV4dCBmaWxsPSIjMDAwMDAwIiBmb250LWZhbWlseT0ic2Fucy1zZXJpZiIgZm9udC1zaXplPSIxNCIgbGVuZ3RoQWRqdXN0PSJzcGFjaW5nIiB0ZXh0TGVuZ3RoPSI3NyIgeD0iMzI1LjUiIHk9IjYwMyI+ZmFjdHVyYWNpJiMyNDM7bjwvdGV4dD48L2c+PCEtLWVudGl0eSBmYWN0dXJhY2lvbkRCLS0+PGcgaWQ9ImVsZW1fZmFjdHVyYWNpb25EQiI+PHJlY3QgZmlsbD0iIzg1QkJGMCIgaGVpZ2h0PSIxMDcuNzY1NiIgcng9IjIuNSIgcnk9IjIuNSIgc3R5bGU9InN0cm9rZTojNzhBOEQ4O3N0cm9rZS13aWR0aDowLjU7IiB3aWR0aD0iMjIwIiB4PSI0OTMiIHk9Ijg4Ny45ODQ0Ii8+PHRleHQgZmlsbD0iIzAwMDAwMCIgZm9udC1mYW1pbHk9InNhbnMtc2VyaWYiIGZvbnQtc2l6ZT0iMTIiIGZvbnQtc3R5bGU9Iml0YWxpYyIgbGVuZ3RoQWRqdXN0PSJzcGFjaW5nIiB0ZXh0TGVuZ3RoPSI3MiIgeD0iNTY3IiB5PSI5MDkuMzI4MSI+JiMxNzE7Y29tcG9uZW50JiMxODc7PC90ZXh0Pjx0ZXh0IGZpbGw9IiMwMDAwMDAiIGZvbnQtZmFtaWx5PSJzYW5zLXNlcmlmIiBmb250LXNpemU9IjE2IiBmb250LXdlaWdodD0iYm9sZCIgbGVuZ3RoQWRqdXN0PSJzcGFjaW5nIiB0ZXh0TGVuZ3RoPSIzMiIgeD0iNTAzIiB5PSI5MjUuOTUzMSI+QmFzZTwvdGV4dD48dGV4dCBmaWxsPSIjMDAwMDAwIiBmb250LWZhbWlseT0ic2Fucy1zZXJpZiIgZm9udC1zaXplPSIxNiIgZm9udC13ZWlnaHQ9ImJvbGQiIGxlbmd0aEFkanVzdD0ic3BhY2luZyIgdGV4dExlbmd0aD0iOCIgeD0iNTM1IiB5PSI5MjUuOTUzMSI+JiMxNjA7PC90ZXh0Pjx0ZXh0IGZpbGw9IiMwMDAwMDAiIGZvbnQtZmFtaWx5PSJzYW5zLXNlcmlmIiBmb250LXNpemU9IjE2IiBmb250LXdlaWdodD0iYm9sZCIgbGVuZ3RoQWRqdXN0PSJzcGFjaW5nIiB0ZXh0TGVuZ3RoPSIxNiIgeD0iNTQzIiB5PSI5MjUuOTUzMSI+ZGU8L3RleHQ+PHRleHQgZmlsbD0iIzAwMDAwMCIgZm9udC1mYW1pbHk9InNhbnMtc2VyaWYiIGZvbnQtc2l6ZT0iMTYiIGZvbnQtd2VpZ2h0PSJib2xkIiBsZW5ndGhBZGp1c3Q9InNwYWNpbmciIHRleHRMZW5ndGg9IjgiIHg9IjU1OSIgeT0iOTI1Ljk1MzEiPiYjMTYwOzwvdGV4dD48dGV4dCBmaWxsPSIjMDAwMDAwIiBmb250LWZhbWlseT0ic2Fucy1zZXJpZiIgZm9udC1zaXplPSIxNiIgZm9udC13ZWlnaHQ9ImJvbGQiIGxlbmd0aEFkanVzdD0ic3BhY2luZyIgdGV4dExlbmd0aD0iNDAiIHg9IjU2NyIgeT0iOTI1Ljk1MzEiPkRhdG9zPC90ZXh0Pjx0ZXh0IGZpbGw9IiMwMDAwMDAiIGZvbnQtZmFtaWx5PSJzYW5zLXNlcmlmIiBmb250LXNpemU9IjE2IiBmb250LXdlaWdodD0iYm9sZCIgbGVuZ3RoQWRqdXN0PSJzcGFjaW5nIiB0ZXh0TGVuZ3RoPSI4IiB4PSI2MDciIHk9IjkyNS45NTMxIj4mIzE2MDs8L3RleHQ+PHRleHQgZmlsbD0iIzAwMDAwMCIgZm9udC1mYW1pbHk9InNhbnMtc2VyaWYiIGZvbnQtc2l6ZT0iMTYiIGZvbnQtd2VpZ2h0PSJib2xkIiBsZW5ndGhBZGp1c3Q9InNwYWNpbmciIHRleHRMZW5ndGg9Ijg4IiB4PSI2MTUiIHk9IjkyNS45NTMxIj5GYWN0dXJhY2kmIzI0MztuPC90ZXh0Pjx0ZXh0IGZpbGw9IiMwMDAwMDAiIGZvbnQtZmFtaWx5PSJzYW5zLXNlcmlmIiBmb250LXNpemU9IjEyIiBmb250LXN0eWxlPSJpdGFsaWMiIGxlbmd0aEFkanVzdD0ic3BhY2luZyIgdGV4dExlbmd0aD0iNjEiIHg9IjU3Mi41IiB5PSI5MzkuMjk2OSI+W01vbmdvREJdPC90ZXh0Pjx0ZXh0IGZpbGw9IiMwMDAwMDAiIGZvbnQtZmFtaWx5PSJzYW5zLXNlcmlmIiBmb250LXNpemU9IjE0IiBsZW5ndGhBZGp1c3Q9InNwYWNpbmciIHRleHRMZW5ndGg9IjciIHg9IjU5OS41IiB5PSI5NTQuMDMxMyI+JiMxNjA7PC90ZXh0Pjx0ZXh0IGZpbGw9IiMwMDAwMDAiIGZvbnQtZmFtaWx5PSJzYW5zLXNlcmlmIiBmb250LXNpemU9IjE0IiBsZW5ndGhBZGp1c3Q9InNwYWNpbmciIHRleHRMZW5ndGg9IjU3IiB4PSI1NDMiIHk9Ijk2OS4wMTU2Ij5BbG1hY2VuYTwvdGV4dD48dGV4dCBmaWxsPSIjMDAwMDAwIiBmb250LWZhbWlseT0ic2Fucy1zZXJpZiIgZm9udC1zaXplPSIxNCIgbGVuZ3RoQWRqdXN0PSJzcGFjaW5nIiB0ZXh0TGVuZ3RoPSI3IiB4PSI2MDAiIHk9Ijk2OS4wMTU2Ij4mIzE2MDs8L3RleHQ+PHRleHQgZmlsbD0iIzAwMDAwMCIgZm9udC1mYW1pbHk9InNhbnMtc2VyaWYiIGZvbnQtc2l6ZT0iMTQiIGxlbmd0aEFkanVzdD0ic3BhY2luZyIgdGV4dExlbmd0aD0iMzUiIHg9IjYwNyIgeT0iOTY5LjAxNTYiPmRhdG9zPC90ZXh0Pjx0ZXh0IGZpbGw9IiMwMDAwMDAiIGZvbnQtZmFtaWx5PSJzYW5zLXNlcmlmIiBmb250LXNpemU9IjE0IiBsZW5ndGhBZGp1c3Q9InNwYWNpbmciIHRleHRMZW5ndGg9IjciIHg9IjY0MiIgeT0iOTY5LjAxNTYiPiYjMTYwOzwvdGV4dD48dGV4dCBmaWxsPSIjMDAwMDAwIiBmb250LWZhbWlseT0ic2Fucy1zZXJpZiIgZm9udC1zaXplPSIxNCIgbGVuZ3RoQWRqdXN0PSJzcGFjaW5nIiB0ZXh0TGVuZ3RoPSIxNCIgeD0iNjQ5IiB5PSI5NjkuMDE1NiI+ZGU8L3RleHQ+PHRleHQgZmlsbD0iIzAwMDAwMCIgZm9udC1mYW1pbHk9InNhbnMtc2VyaWYiIGZvbnQtc2l6ZT0iMTQiIGxlbmd0aEFkanVzdD0ic3BhY2luZyIgdGV4dExlbmd0aD0iNzciIHg9IjUxOC41IiB5PSI5ODQiPmZhY3R1cmFjaSYjMjQzO248L3RleHQ+PHRleHQgZmlsbD0iIzAwMDAwMCIgZm9udC1mYW1pbHk9InNhbnMtc2VyaWYiIGZvbnQtc2l6ZT0iMTQiIGxlbmd0aEFkanVzdD0ic3BhY2luZyIgdGV4dExlbmd0aD0iNyIgeD0iNTk1LjUiIHk9Ijk4NCI+JiMxNjA7PC90ZXh0Pjx0ZXh0IGZpbGw9IiMwMDAwMDAiIGZvbnQtZmFtaWx5PSJzYW5zLXNlcmlmIiBmb250LXNpemU9IjE0IiBsZW5ndGhBZGp1c3Q9InNwYWNpbmciIHRleHRMZW5ndGg9IjciIHg9IjYwMi41IiB5PSI5ODQiPnk8L3RleHQ+PHRleHQgZmlsbD0iIzAwMDAwMCIgZm9udC1mYW1pbHk9InNhbnMtc2VyaWYiIGZvbnQtc2l6ZT0iMTQiIGxlbmd0aEFkanVzdD0ic3BhY2luZyIgdGV4dExlbmd0aD0iNyIgeD0iNjA5LjUiIHk9Ijk4NCI+JiMxNjA7PC90ZXh0Pjx0ZXh0IGZpbGw9IiMwMDAwMDAiIGZvbnQtZmFtaWx5PSJzYW5zLXNlcmlmIiBmb250LXNpemU9IjE0IiBsZW5ndGhBZGp1c3Q9InNwYWNpbmciIHRleHRMZW5ndGg9IjcxIiB4PSI2MTYuNSIgeT0iOTg0Ij5jb21pc2lvbmVzPC90ZXh0PjwvZz48IS0tZW50aXR5IHRyYW5zYWNjaW9uZXMtLT48ZyBpZD0iZWxlbV90cmFuc2FjY2lvbmVzIj48cmVjdCBmaWxsPSIjOTk5OTk5IiBoZWlnaHQ9IjExMi4wNDY5IiByeD0iMi41IiByeT0iMi41IiBzdHlsZT0ic3Ryb2tlOiM4QThBOEE7c3Ryb2tlLXdpZHRoOjAuNTsiIHdpZHRoPSIxNjgiIHg9Ijc4NSIgeT0iNTA0Ljk4NDQiLz48dGV4dCBmaWxsPSIjRkZGRkZGIiBmb250LWZhbWlseT0ic2Fucy1zZXJpZiIgZm9udC1zaXplPSIxMiIgZm9udC1zdHlsZT0iaXRhbGljIiBsZW5ndGhBZGp1c3Q9InNwYWNpbmciIHRleHRMZW5ndGg9IjExMiIgeD0iODEzIiB5PSI1MjYuMzI4MSI+JiMxNzE7ZXh0ZXJuYWxfc3lzdGVtJiMxODc7PC90ZXh0Pjx0ZXh0IGZpbGw9IiNGRkZGRkYiIGZvbnQtZmFtaWx5PSJzYW5zLXNlcmlmIiBmb250LXNpemU9IjE2IiBmb250LXdlaWdodD0iYm9sZCIgbGVuZ3RoQWRqdXN0PSJzcGFjaW5nIiB0ZXh0TGVuZ3RoPSIxMDQiIHg9IjgwNSIgeT0iNTQyLjk1MzEiPk1pY3Jvc2VydmljaW88L3RleHQ+PHRleHQgZmlsbD0iI0ZGRkZGRiIgZm9udC1mYW1pbHk9InNhbnMtc2VyaWYiIGZvbnQtc2l6ZT0iMTYiIGZvbnQtd2VpZ2h0PSJib2xkIiBsZW5ndGhBZGp1c3Q9InNwYWNpbmciIHRleHRMZW5ndGg9IjgiIHg9IjkwOSIgeT0iNTQyLjk1MzEiPiYjMTYwOzwvdGV4dD48dGV4dCBmaWxsPSIjRkZGRkZGIiBmb250LWZhbWlseT0ic2Fucy1zZXJpZiIgZm9udC1zaXplPSIxNiIgZm9udC13ZWlnaHQ9ImJvbGQiIGxlbmd0aEFkanVzdD0ic3BhY2luZyIgdGV4dExlbmd0aD0iMTYiIHg9IjkxNyIgeT0iNTQyLjk1MzEiPmRlPC90ZXh0Pjx0ZXh0IGZpbGw9IiNGRkZGRkYiIGZvbnQtZmFtaWx5PSJzYW5zLXNlcmlmIiBmb250LXNpemU9IjE2IiBmb250LXdlaWdodD0iYm9sZCIgbGVuZ3RoQWRqdXN0PSJzcGFjaW5nIiB0ZXh0TGVuZ3RoPSIxMDQiIHg9IjgxNyIgeT0iNTYwLjA3ODEiPlRyYW5zYWNjaW9uZXM8L3RleHQ+PHRleHQgZmlsbD0iI0ZGRkZGRiIgZm9udC1mYW1pbHk9InNhbnMtc2VyaWYiIGZvbnQtc2l6ZT0iMTQiIGxlbmd0aEFkanVzdD0ic3BhY2luZyIgdGV4dExlbmd0aD0iNyIgeD0iODY1LjUiIHk9IjU3NS4zMTI1Ij4mIzE2MDs8L3RleHQ+PHRleHQgZmlsbD0iI0ZGRkZGRiIgZm9udC1mYW1pbHk9InNhbnMtc2VyaWYiIGZvbnQtc2l6ZT0iMTQiIGxlbmd0aEFkanVzdD0ic3BhY2luZyIgdGV4dExlbmd0aD0iNDIiIHg9Ijc5NSIgeT0iNTkwLjI5NjkiPlByb3ZlZTwvdGV4dD48dGV4dCBmaWxsPSIjRkZGRkZGIiBmb250LWZhbWlseT0ic2Fucy1zZXJpZiIgZm9udC1zaXplPSIxNCIgbGVuZ3RoQWRqdXN0PSJzcGFjaW5nIiB0ZXh0TGVuZ3RoPSI3IiB4PSI4MzciIHk9IjU5MC4yOTY5Ij4mIzE2MDs8L3RleHQ+PHRleHQgZmlsbD0iI0ZGRkZGRiIgZm9udC1mYW1pbHk9InNhbnMtc2VyaWYiIGZvbnQtc2l6ZT0iMTQiIGxlbmd0aEFkanVzdD0ic3BhY2luZyIgdGV4dExlbmd0aD0iNzgiIHg9Ijg0NCIgeT0iNTkwLjI5NjkiPmluZm9ybWFjaSYjMjQzO248L3RleHQ+PHRleHQgZmlsbD0iI0ZGRkZGRiIgZm9udC1mYW1pbHk9InNhbnMtc2VyaWYiIGZvbnQtc2l6ZT0iMTQiIGxlbmd0aEFkanVzdD0ic3BhY2luZyIgdGV4dExlbmd0aD0iNyIgeD0iOTIyIiB5PSI1OTAuMjk2OSI+JiMxNjA7PC90ZXh0Pjx0ZXh0IGZpbGw9IiNGRkZGRkYiIGZvbnQtZmFtaWx5PSJzYW5zLXNlcmlmIiBmb250LXNpemU9IjE0IiBsZW5ndGhBZGp1c3Q9InNwYWNpbmciIHRleHRMZW5ndGg9IjE0IiB4PSI5MjkiIHk9IjU5MC4yOTY5Ij5kZTwvdGV4dD48dGV4dCBmaWxsPSIjRkZGRkZGIiBmb250LWZhbWlseT0ic2Fucy1zZXJpZiIgZm9udC1zaXplPSIxNCIgbGVuZ3RoQWRqdXN0PSJzcGFjaW5nIiB0ZXh0TGVuZ3RoPSI5MSIgeD0iODIzLjUiIHk9IjYwNS4yODEzIj50cmFuc2FjY2lvbmVzPC90ZXh0PjwvZz48IS0tZW50aXR5IGNvbWVyY2lvcy0tPjxnIGlkPSJlbGVtX2NvbWVyY2lvcyI+PHJlY3QgZmlsbD0iIzk5OTk5OSIgaGVpZ2h0PSIxMTIuMDQ2OSIgcng9IjIuNSIgcnk9IjIuNSIgc3R5bGU9InN0cm9rZTojOEE4QThBO3N0cm9rZS13aWR0aDowLjU7IiB3aWR0aD0iMTY4IiB4PSI5ODgiIHk9IjUwNC45ODQ0Ii8+PHRleHQgZmlsbD0iI0ZGRkZGRiIgZm9udC1mYW1pbHk9InNhbnMtc2VyaWYiIGZvbnQtc2l6ZT0iMTIiIGZvbnQtc3R5bGU9Iml0YWxpYyIgbGVuZ3RoQWRqdXN0PSJzcGFjaW5nIiB0ZXh0TGVuZ3RoPSIxMTIiIHg9IjEwMTYiIHk9IjUyNi4zMjgxIj4mIzE3MTtleHRlcm5hbF9zeXN0ZW0mIzE4Nzs8L3RleHQ+PHRleHQgZmlsbD0iI0ZGRkZGRiIgZm9udC1mYW1pbHk9InNhbnMtc2VyaWYiIGZvbnQtc2l6ZT0iMTYiIGZvbnQtd2VpZ2h0PSJib2xkIiBsZW5ndGhBZGp1c3Q9InNwYWNpbmciIHRleHRMZW5ndGg9IjEwNCIgeD0iMTAwOCIgeT0iNTQyLjk1MzEiPk1pY3Jvc2VydmljaW88L3RleHQ+PHRleHQgZmlsbD0iI0ZGRkZGRiIgZm9udC1mYW1pbHk9InNhbnMtc2VyaWYiIGZvbnQtc2l6ZT0iMTYiIGZvbnQtd2VpZ2h0PSJib2xkIiBsZW5ndGhBZGp1c3Q9InNwYWNpbmciIHRleHRMZW5ndGg9IjgiIHg9IjExMTIiIHk9IjU0Mi45NTMxIj4mIzE2MDs8L3RleHQ+PHRleHQgZmlsbD0iI0ZGRkZGRiIgZm9udC1mYW1pbHk9InNhbnMtc2VyaWYiIGZvbnQtc2l6ZT0iMTYiIGZvbnQtd2VpZ2h0PSJib2xkIiBsZW5ndGhBZGp1c3Q9InNwYWNpbmciIHRleHRMZW5ndGg9IjE2IiB4PSIxMTIwIiB5PSI1NDIuOTUzMSI+ZGU8L3RleHQ+PHRleHQgZmlsbD0iI0ZGRkZGRiIgZm9udC1mYW1pbHk9InNhbnMtc2VyaWYiIGZvbnQtc2l6ZT0iMTYiIGZvbnQtd2VpZ2h0PSJib2xkIiBsZW5ndGhBZGp1c3Q9InNwYWNpbmciIHRleHRMZW5ndGg9IjcyIiB4PSIxMDM2IiB5PSI1NjAuMDc4MSI+Q29tZXJjaW9zPC90ZXh0Pjx0ZXh0IGZpbGw9IiNGRkZGRkYiIGZvbnQtZmFtaWx5PSJzYW5zLXNlcmlmIiBmb250LXNpemU9IjE0IiBsZW5ndGhBZGp1c3Q9InNwYWNpbmciIHRleHRMZW5ndGg9IjciIHg9IjEwNjguNSIgeT0iNTc1LjMxMjUiPiYjMTYwOzwvdGV4dD48dGV4dCBmaWxsPSIjRkZGRkZGIiBmb250LWZhbWlseT0ic2Fucy1zZXJpZiIgZm9udC1zaXplPSIxNCIgbGVuZ3RoQWRqdXN0PSJzcGFjaW5nIiB0ZXh0TGVuZ3RoPSI0MiIgeD0iOTk4IiB5PSI1OTAuMjk2OSI+UHJvdmVlPC90ZXh0Pjx0ZXh0IGZpbGw9IiNGRkZGRkYiIGZvbnQtZmFtaWx5PSJzYW5zLXNlcmlmIiBmb250LXNpemU9IjE0IiBsZW5ndGhBZGp1c3Q9InNwYWNpbmciIHRleHRMZW5ndGg9IjciIHg9IjEwNDAiIHk9IjU5MC4yOTY5Ij4mIzE2MDs8L3RleHQ+PHRleHQgZmlsbD0iI0ZGRkZGRiIgZm9udC1mYW1pbHk9InNhbnMtc2VyaWYiIGZvbnQtc2l6ZT0iMTQiIGxlbmd0aEFkanVzdD0ic3BhY2luZyIgdGV4dExlbmd0aD0iNzgiIHg9IjEwNDciIHk9IjU5MC4yOTY5Ij5pbmZvcm1hY2kmIzI0MztuPC90ZXh0Pjx0ZXh0IGZpbGw9IiNGRkZGRkYiIGZvbnQtZmFtaWx5PSJzYW5zLXNlcmlmIiBmb250LXNpemU9IjE0IiBsZW5ndGhBZGp1c3Q9InNwYWNpbmciIHRleHRMZW5ndGg9IjciIHg9IjExMjUiIHk9IjU5MC4yOTY5Ij4mIzE2MDs8L3RleHQ+PHRleHQgZmlsbD0iI0ZGRkZGRiIgZm9udC1mYW1pbHk9InNhbnMtc2VyaWYiIGZvbnQtc2l6ZT0iMTQiIGxlbmd0aEFkanVzdD0ic3BhY2luZyIgdGV4dExlbmd0aD0iMTQiIHg9IjExMzIiIHk9IjU5MC4yOTY5Ij5kZTwvdGV4dD48dGV4dCBmaWxsPSIjRkZGRkZGIiBmb250LWZhbWlseT0ic2Fucy1zZXJpZiIgZm9udC1zaXplPSIxNCIgbGVuZ3RoQWRqdXN0PSJzcGFjaW5nIiB0ZXh0TGVuZ3RoPSI2NCIgeD0iMTA0MCIgeT0iNjA1LjI4MTMiPmNvbWVyY2lvczwvdGV4dD48L2c+PCEtLWxpbmsgY29taXNpb25Db250cm9sbGVyIHRvIGNvbWlzaW9uU2VydmljZS0tPjxnIGlkPSJsaW5rX2NvbWlzaW9uQ29udHJvbGxlcl9jb21pc2lvblNlcnZpY2UiPjxwYXRoIGQ9Ik01ODUuNjUsNjE1LjAyNDQgQzU3Ny45NCw2MzguNTY0NCA1NzEuMzI2Nyw2NTguNzkwNyA1NjMuMzU2Nyw2ODMuMTYwNyAiIGZpbGw9Im5vbmUiIGlkPSJjb21pc2lvbkNvbnRyb2xsZXItdG8tY29taXNpb25TZXJ2aWNlIiBzdHlsZT0ic3Ryb2tlOiM2NjY2NjY7c3Ryb2tlLXdpZHRoOjEuMDsiLz48cG9seWdvbiBmaWxsPSIjNjY2NjY2IiBwb2ludHM9IjU2MC44Nyw2OTAuNzY0NCw1NjYuMjA4MSw2ODQuMDkzMiw1NjAuNTA1Myw2ODIuMjI4Miw1NjAuODcsNjkwLjc2NDQiIHN0eWxlPSJzdHJva2U6IzY2NjY2NjtzdHJva2Utd2lkdGg6MS4wOyIvPjx0ZXh0IGZpbGw9IiM2NjY2NjYiIGZvbnQtZmFtaWx5PSJzYW5zLXNlcmlmIiBmb250LXNpemU9IjEyIiBmb250LXdlaWdodD0iYm9sZCIgbGVuZ3RoQWRqdXN0PSJzcGFjaW5nIiB0ZXh0TGVuZ3RoPSIyMSIgeD0iNTc0IiB5PSI2NTkuMzI4MSI+VXNhPC90ZXh0PjwvZz48IS0tbGluayBmYWN0dXJhY2lvbkNvbnRyb2xsZXIgdG8gZmFjdHVyYWNpb25TZXJ2aWNlLS0+PGcgaWQ9ImxpbmtfZmFjdHVyYWNpb25Db250cm9sbGVyX2ZhY3R1cmFjaW9uU2VydmljZSI+PHBhdGggZD0iTTY0OCwyMzYuMjA0NCBDNjQ4LDI2MC4wNDQ0IDY0OCwyNzkuMDQ0NCA2NDgsMzAxLjk4NDQgIiBmaWxsPSJub25lIiBpZD0iZmFjdHVyYWNpb25Db250cm9sbGVyLXRvLWZhY3R1cmFjaW9uU2VydmljZSIgc3R5bGU9InN0cm9rZTojNjY2NjY2O3N0cm9rZS13aWR0aDoxLjA7Ii8+PHBvbHlnb24gZmlsbD0iIzY2NjY2NiIgcG9pbnRzPSI2NDgsMzA5Ljk4NDQsNjUxLDMwMS45ODQ0LDY0NSwzMDEuOTg0NCw2NDgsMzA5Ljk4NDQiIHN0eWxlPSJzdHJva2U6IzY2NjY2NjtzdHJva2Utd2lkdGg6MS4wOyIvPjx0ZXh0IGZpbGw9IiM2NjY2NjYiIGZvbnQtZmFtaWx5PSJzYW5zLXNlcmlmIiBmb250LXNpemU9IjEyIiBmb250LXdlaWdodD0iYm9sZCIgbGVuZ3RoQWRqdXN0PSJzcGFjaW5nIiB0ZXh0TGVuZ3RoPSIyMSIgeD0iNjQ5IiB5PSIyNzguMzI4MSI+VXNhPC90ZXh0PjwvZz48IS0tbGluayBjb21pc2lvblNlcnZpY2UgdG8gZmFjdHVyYWNpb25EQi0tPjxnIGlkPSJsaW5rX2NvbWlzaW9uU2VydmljZV9mYWN0dXJhY2lvbkRCIj48cGF0aCBkPSJNNTYxLjA0LDgxNC4xMDQ0IEM1NjguOSw4MzcuODU0NCA1NzUuMzE3LDg1Ny4yNjkzIDU4Mi45MTcsODgwLjIzOTMgIiBmaWxsPSJub25lIiBpZD0iY29taXNpb25TZXJ2aWNlLXRvLWZhY3R1cmFjaW9uREIiIHN0eWxlPSJzdHJva2U6IzY2NjY2NjtzdHJva2Utd2lkdGg6MS4wOyIvPjxwb2x5Z29uIGZpbGw9IiM2NjY2NjYiIHBvaW50cz0iNTg1LjQzLDg4Ny44MzQ0LDU4NS43NjUyLDg3OS4yOTY5LDU4MC4wNjg5LDg4MS4xODE3LDU4NS40Myw4ODcuODM0NCIgc3R5bGU9InN0cm9rZTojNjY2NjY2O3N0cm9rZS13aWR0aDoxLjA7Ii8+PHRleHQgZmlsbD0iIzY2NjY2NiIgZm9udC1mYW1pbHk9InNhbnMtc2VyaWYiIGZvbnQtc2l6ZT0iMTIiIGZvbnQtd2VpZ2h0PSJib2xkIiBsZW5ndGhBZGp1c3Q9InNwYWNpbmciIHRleHRMZW5ndGg9IjczIiB4PSI1NzQiIHk9Ijg1Ni4zMjgxIj5MZWUvRXNjcmliZTwvdGV4dD48L2c+PCEtLWxpbmsgZmFjdHVyYWNpb25TZXJ2aWNlIHRvIGZhY3R1cmFjaW9uREItLT48ZyBpZD0ibGlua19mYWN0dXJhY2lvblNlcnZpY2VfZmFjdHVyYWNpb25EQiI+PHBhdGggZD0iTTY4OC42NCw0MTguMDc0NCBDNzA1LjI1LDQ0My4wMzQ0IDcyMi41Miw0NzQuMDU0NCA3MzEsNTA0Ljk4NDQgQzc0NC4xNiw1NTIuOTk0NCA3MzguNDgsNTY3Ljc3NDQgNzMxLDYxNi45ODQ0IEM3MTQuMTQsNzI3Ljg4NDQgNzAzLjI3LDc1Ni4yNTQ0IDY1Niw4NTcuOTg0NCBDNjUxLjM5LDg2Ny45MDQ0IDY0OS45MSw4NzEuMjA4OSA2NDQuMDgsODgwLjg0ODkgIiBmaWxsPSJub25lIiBpZD0iZmFjdHVyYWNpb25TZXJ2aWNlLXRvLWZhY3R1cmFjaW9uREIiIHN0eWxlPSJzdHJva2U6IzY2NjY2NjtzdHJva2Utd2lkdGg6MS4wOyIvPjxwb2x5Z29uIGZpbGw9IiM2NjY2NjYiIHBvaW50cz0iNjM5Ljk0LDg4Ny42OTQ0LDY0Ni42NDcsODgyLjQwMTQsNjQxLjUxMjksODc5LjI5NjQsNjM5Ljk0LDg4Ny42OTQ0IiBzdHlsZT0ic3Ryb2tlOiM2NjY2NjY7c3Ryb2tlLXdpZHRoOjEuMDsiLz48dGV4dCBmaWxsPSIjNjY2NjY2IiBmb250LWZhbWlseT0ic2Fucy1zZXJpZiIgZm9udC1zaXplPSIxMiIgZm9udC13ZWlnaHQ9ImJvbGQiIGxlbmd0aEFkanVzdD0ic3BhY2luZyIgdGV4dExlbmd0aD0iNzMiIHg9IjcyNyIgeT0iNjU5LjMyODEiPkxlZS9Fc2NyaWJlPC90ZXh0PjwvZz48IS0tbGluayBmYWN0dXJhY2lvblNlcnZpY2UgdG8gY2FsY3VsYWRvckNvbWlzaW9uZXMtLT48ZyBpZD0ibGlua19mYWN0dXJhY2lvblNlcnZpY2VfY2FsY3VsYWRvckNvbWlzaW9uZXMiPjxwYXRoIGQ9Ik01NDUuODQsMzk4LjU3NDQgQzQ2NS4zNyw0MjUuNjM0NCAzNTAuNjksNDY1LjU0NDQgMjUyLDUwNC45ODQ0IEMyNDYuNDYsNTA3LjE5NDQgMjQ4LjE4MDQsNTA2LjQyNzMgMjQyLjQ5MDQsNTA4LjgwNzMgIiBmaWxsPSJub25lIiBpZD0iZmFjdHVyYWNpb25TZXJ2aWNlLXRvLWNhbGN1bGFkb3JDb21pc2lvbmVzIiBzdHlsZT0ic3Ryb2tlOiM2NjY2NjY7c3Ryb2tlLXdpZHRoOjEuMDsiLz48cG9seWdvbiBmaWxsPSIjNjY2NjY2IiBwb2ludHM9IjIzNS4xMSw1MTEuODk0NCwyNDMuNjQ4LDUxMS41NzUsMjQxLjMzMjcsNTA2LjAzOTcsMjM1LjExLDUxMS44OTQ0IiBzdHlsZT0ic3Ryb2tlOiM2NjY2NjY7c3Ryb2tlLXdpZHRoOjEuMDsiLz48dGV4dCBmaWxsPSIjNjY2NjY2IiBmb250LWZhbWlseT0ic2Fucy1zZXJpZiIgZm9udC1zaXplPSIxMiIgZm9udC13ZWlnaHQ9ImJvbGQiIGxlbmd0aEFkanVzdD0ic3BhY2luZyIgdGV4dExlbmd0aD0iMjEiIHg9IjQwNCIgeT0iNDY2LjgyODEiPlVzYTwvdGV4dD48L2c+PCEtLWxpbmsgZmFjdHVyYWNpb25TZXJ2aWNlIHRvIGdlbmVyYWRvckZhY3R1cmFzLS0+PGcgaWQ9ImxpbmtfZmFjdHVyYWNpb25TZXJ2aWNlX2dlbmVyYWRvckZhY3R1cmFzIj48cGF0aCBkPSJNNTcwLjc3LDQxOC4wMTQ0IEM1MzAuNTMsNDQ1LjY0NDQgNDg4LjA0NSw0NzQuODA2IDQ0Ny44MDUsNTAyLjQzNiAiIGZpbGw9Im5vbmUiIGlkPSJmYWN0dXJhY2lvblNlcnZpY2UtdG8tZ2VuZXJhZG9yRmFjdHVyYXMiIHN0eWxlPSJzdHJva2U6IzY2NjY2NjtzdHJva2Utd2lkdGg6MS4wOyIvPjxwb2x5Z29uIGZpbGw9IiM2NjY2NjYiIHBvaW50cz0iNDQxLjIxLDUwNi45NjQ0LDQ0OS41MDMxLDUwNC45MDkyLDQ0Ni4xMDY5LDQ5OS45NjI5LDQ0MS4yMSw1MDYuOTY0NCIgc3R5bGU9InN0cm9rZTojNjY2NjY2O3N0cm9rZS13aWR0aDoxLjA7Ii8+PHRleHQgZmlsbD0iIzY2NjY2NiIgZm9udC1mYW1pbHk9InNhbnMtc2VyaWYiIGZvbnQtc2l6ZT0iMTIiIGZvbnQtd2VpZ2h0PSJib2xkIiBsZW5ndGhBZGp1c3Q9InNwYWNpbmciIHRleHRMZW5ndGg9IjIxIiB4PSI1MjQiIHk9IjQ2Ni44MjgxIj5Vc2E8L3RleHQ+PC9nPjwhLS1saW5rIGNhbGN1bGFkb3JDb21pc2lvbmVzIHRvIGNvbWlzaW9uU2VydmljZS0tPjxnIGlkPSJsaW5rX2NhbGN1bGFkb3JDb21pc2lvbmVzX2NvbWlzaW9uU2VydmljZSI+PHBhdGggZD0iTTIzNS4xLDYxMC43ODQ0IEMyOTkuMTIsNjQwLjIzNDQgMzcyLjg1MjIsNjc0LjE0MDkgNDM1LjQxMjIsNzAyLjkyMDkgIiBmaWxsPSJub25lIiBpZD0iY2FsY3VsYWRvckNvbWlzaW9uZXMtdG8tY29taXNpb25TZXJ2aWNlIiBzdHlsZT0ic3Ryb2tlOiM2NjY2NjY7c3Ryb2tlLXdpZHRoOjEuMDsiLz48cG9seWdvbiBmaWxsPSIjNjY2NjY2IiBwb2ludHM9IjQ0Mi42OCw3MDYuMjY0NCw0MzYuNjY2LDcwMC4xOTU1LDQzNC4xNTg0LDcwNS42NDYzLDQ0Mi42OCw3MDYuMjY0NCIgc3R5bGU9InN0cm9rZTojNjY2NjY2O3N0cm9rZS13aWR0aDoxLjA7Ii8+PHRleHQgZmlsbD0iIzY2NjY2NiIgZm9udC1mYW1pbHk9InNhbnMtc2VyaWYiIGZvbnQtc2l6ZT0iMTIiIGZvbnQtd2VpZ2h0PSJib2xkIiBsZW5ndGhBZGp1c3Q9InNwYWNpbmciIHRleHRMZW5ndGg9IjIxIiB4PSIzMzYiIHk9IjY1OS4zMjgxIj5Vc2E8L3RleHQ+PC9nPjwhLS1saW5rIGZhY3R1cmFjaW9uU2VydmljZSB0byB0cmFuc2FjY2lvbmVzLS0+PGcgaWQ9ImxpbmtfZmFjdHVyYWNpb25TZXJ2aWNlX3RyYW5zYWNjaW9uZXMiPjxwYXRoIGQ9Ik03MjEuMzYsNDE4LjAxNDQgQzczMy44Myw0MjcuNjg0NCA3NDYuNDcsNDM3LjkxNDQgNzU4LDQ0Ny45ODQ0IEM3NzguMiw0NjUuNjM0NCA3OTMuNjA3OSw0ODAuNDYzNSA4MTEuODM3OSw0OTkuMTEzNSAiIGZpbGw9Im5vbmUiIGlkPSJmYWN0dXJhY2lvblNlcnZpY2UtdG8tdHJhbnNhY2Npb25lcyIgc3R5bGU9InN0cm9rZTojNjY2NjY2O3N0cm9rZS13aWR0aDoxLjA7Ii8+PHBvbHlnb24gZmlsbD0iIzY2NjY2NiIgcG9pbnRzPSI4MTcuNDMsNTA0LjgzNDQsODEzLjk4MzMsNDk3LjAxNjQsODA5LjY5MjYsNTAxLjIxMDUsODE3LjQzLDUwNC44MzQ0IiBzdHlsZT0ic3Ryb2tlOiM2NjY2NjY7c3Ryb2tlLXdpZHRoOjEuMDsiLz48dGV4dCBmaWxsPSIjNjY2NjY2IiBmb250LWZhbWlseT0ic2Fucy1zZXJpZiIgZm9udC1zaXplPSIxMiIgZm9udC13ZWlnaHQ9ImJvbGQiIGxlbmd0aEFkanVzdD0ic3BhY2luZyIgdGV4dExlbmd0aD0iNTQiIHg9Ijc4NyIgeT0iNDYwLjMyODEiPkNvbnN1bHRhPC90ZXh0Pjx0ZXh0IGZpbGw9IiM2NjY2NjYiIGZvbnQtZmFtaWx5PSJzYW5zLXNlcmlmIiBmb250LXNpemU9IjEyIiBmb250LXdlaWdodD0iYm9sZCIgbGVuZ3RoQWRqdXN0PSJzcGFjaW5nIiB0ZXh0TGVuZ3RoPSI2IiB4PSI4NDEiIHk9IjQ2MC4zMjgxIj4mIzE2MDs8L3RleHQ+PHRleHQgZmlsbD0iIzY2NjY2NiIgZm9udC1mYW1pbHk9InNhbnMtc2VyaWYiIGZvbnQtc2l6ZT0iMTIiIGZvbnQtd2VpZ2h0PSJib2xkIiBsZW5ndGhBZGp1c3Q9InNwYWNpbmciIHRleHRMZW5ndGg9Ijg3IiB4PSI4NDciIHk9IjQ2MC4zMjgxIj50cmFuc2FjY2lvbmVzPC90ZXh0Pjx0ZXh0IGZpbGw9IiM2NjY2NjYiIGZvbnQtZmFtaWx5PSJzYW5zLXNlcmlmIiBmb250LXNpemU9IjEyIiBmb250LXN0eWxlPSJpdGFsaWMiIGxlbmd0aEFkanVzdD0ic3BhY2luZyIgdGV4dExlbmd0aD0iMzgiIHg9Ijg0MS41IiB5PSI0NzMuMTcxOSI+W1JFU1RdPC90ZXh0PjwvZz48IS0tbGluayBmYWN0dXJhY2lvblNlcnZpY2UgdG8gY29tZXJjaW9zLS0+PGcgaWQ9ImxpbmtfZmFjdHVyYWNpb25TZXJ2aWNlX2NvbWVyY2lvcyI+PHBhdGggZD0iTTc1MC4yLDM4Mi4xNjQ0IEM4MDkuMDIsMzk0LjgyNDQgODgyLjk0LDQxNS41OTQ0IDk0Myw0NDcuOTg0NCBDOTcwLjU0LDQ2Mi44MzQ0IDk5MS40MTkyLDQ3OS4wMzk5IDEwMTMuMzQ5Miw0OTkuMzM5OSAiIGZpbGw9Im5vbmUiIGlkPSJmYWN0dXJhY2lvblNlcnZpY2UtdG8tY29tZXJjaW9zIiBzdHlsZT0ic3Ryb2tlOiM2NjY2NjY7c3Ryb2tlLXdpZHRoOjEuMDsiLz48cG9seWdvbiBmaWxsPSIjNjY2NjY2IiBwb2ludHM9IjEwMTkuMjIsNTA0Ljc3NDQsMTAxNS4zODcxLDQ5Ny4xMzg0LDEwMTEuMzExMiw1MDEuNTQxNSwxMDE5LjIyLDUwNC43NzQ0IiBzdHlsZT0ic3Ryb2tlOiM2NjY2NjY7c3Ryb2tlLXdpZHRoOjEuMDsiLz48dGV4dCBmaWxsPSIjNjY2NjY2IiBmb250LWZhbWlseT0ic2Fucy1zZXJpZiIgZm9udC1zaXplPSIxMiIgZm9udC13ZWlnaHQ9ImJvbGQiIGxlbmd0aEFkanVzdD0ic3BhY2luZyIgdGV4dExlbmd0aD0iNTQiIHg9Ijk4MyIgeT0iNDYwLjMyODEiPkNvbnN1bHRhPC90ZXh0Pjx0ZXh0IGZpbGw9IiM2NjY2NjYiIGZvbnQtZmFtaWx5PSJzYW5zLXNlcmlmIiBmb250LXNpemU9IjEyIiBmb250LXdlaWdodD0iYm9sZCIgbGVuZ3RoQWRqdXN0PSJzcGFjaW5nIiB0ZXh0TGVuZ3RoPSI2IiB4PSIxMDM3IiB5PSI0NjAuMzI4MSI+JiMxNjA7PC90ZXh0Pjx0ZXh0IGZpbGw9IiM2NjY2NjYiIGZvbnQtZmFtaWx5PSJzYW5zLXNlcmlmIiBmb250LXNpemU9IjEyIiBmb250LXdlaWdodD0iYm9sZCIgbGVuZ3RoQWRqdXN0PSJzcGFjaW5nIiB0ZXh0TGVuZ3RoPSI1OSIgeD0iMTA0MyIgeT0iNDYwLjMyODEiPmNvbWVyY2lvczwvdGV4dD48dGV4dCBmaWxsPSIjNjY2NjY2IiBmb250LWZhbWlseT0ic2Fucy1zZXJpZiIgZm9udC1zaXplPSIxMiIgZm9udC1zdHlsZT0iaXRhbGljIiBsZW5ndGhBZGp1c3Q9InNwYWNpbmciIHRleHRMZW5ndGg9IjM4IiB4PSIxMDIzLjUiIHk9IjQ3My4xNzE5Ij5bUkVTVF08L3RleHQ+PC9nPjwhLS1TUkM9W2RMSkJSamltNEJwaEFyWVY3QTJFQlp0ckxaX1FZbXE0U044c3JqSVE4SzJIMGFjYkRPZi1KQnlYanJ4ek9ydEFpanVvZEZXYUJ0VGNUY1VOXzJHckx0YzJ4Q054cDdzRE9taV94dU5xQl9hLVRzWXZxSHdybC1TY1pKQzVza1VmY1pjVkFCY0Y1cnpjM283cWw1ZDdBSllGYmFBeFhLYXBlbUNjZXptZXlqOGhQNGk5bWE4QVo5SWczN0hpblpRSU1xREFodjlCNHV3XzBfVXYxSXZGUnBnQTViRzBJOHJzRHBVdkppMFVmdVRCV2o2VnNVR2dWZEI3VmFVQ1ZmTmNiM2dIWmcyMXMxZ2JxMTk5LUdTSU95aUFZbm5xNHBoU1BiUGdtSHZOc29UTWV5QjkzdElVcWUyWEpaOFpqTlNpMG1rQ04zajhTSWFZQ0ZBUXlRdkpLQUVUUXBNcnNsZkdMUGFyNzV0WHFRN2JLTDdHWTR0Um1iYUNXV3NGMW1xZ0txRGFWTmVKYVhWSnJZWENHOXNERVZyTEY1VTY3UGE4TFJ4QmRVNUlIZG92ZVBadC1HNlh5MzJDa2xTbWYyaFNqd0sySi1oNEhnbENlSlp6cXlvWUtFMFFyVkt5NDRaeDdwSkFOYnFudjNCTXlBMmxVaXZZWVU1dklZN1pSY2tzT1Zmb0paSHBTMVlHSW1XS05TU3RIV2twZDhWRlJvZTVaaEh3MkdvOHFUSFJhX3VKSFRpWmxIbGZSbE5CSnhxNXhPM3BZeE16WV90S0owWGczelF5OFpBZjN5UWN6THJoNFA1Q0d1RmF3S3NKUGYxX1NKY3ltYnFINDZfcVk2aG1FVWRWZE1TNzEwWnY4eFR6U0N0Rmc5UENUVFdUcUhlbk5aYmt2SHh4SVpVWUhjNFpvcF9PTEdLUXNqZVFDS212dmpvZUk3VGZvNUVOQW0tVDlRMkp5NTFVZ1JRdjZISzlSc3g0Y1UwX10tLT48L2c+PC9zdmc+;" vertex="1" parent="1">
            <mxGeometry x="810" y="-210" width="1162" height="1017" as="geometry" />
          </mxCell>
        </UserObject>
      </root>
    </mxGraphModel>
  </diagram>
</mxfile>
